<svg width="39" height="27" viewBox="0 0 39 27" fill="none" xmlns="http://www.w3.org/2000/svg">
<g clip-path="url(#clip0_127_832)">
<path d="M15.009 11.0956C15.1652 9.95992 15.3872 8.08056 17.121 7.27532C18.8549 6.47007 22.4995 6.37551 25.6193 6.75982C30.2177 7.3254 33.7332 9.03053 35.5179 11.5592C36.5688 13.0492 36.9402 14.7217 36.587 16.3951C36.2862 17.8285 35.111 19.7668 31.2185 20.8647C28.7796 21.5521 25.7506 21.7458 22.909 21.3964C19.4788 20.9746 15.8317 20.4783 15.0745 18.4226C14.6467 17.2628 14.6031 16.5041 14.6841 14.7627C14.7514 13.3308 14.8535 12.2324 15.009 11.0956ZM12.7527 8.3647L11.9917 18.1618C11.9276 18.9896 11.3045 19.4933 9.90307 19.4145C5.30312 19.1555 0.533698 16.3393 1.78755 12.0613C2.97492 8.01012 8.48618 6.6346 11.1525 6.90547C12.362 7.02689 12.8232 7.46699 12.7527 8.3647Z" fill="white" fill-opacity="0.25"/>
</g>
<defs>
<clipPath id="clip0_127_832">
<rect width="17.0289" height="34.6961" fill="white" transform="matrix(-0.281262 0.959631 -0.96283 -0.270107 38.4502 10.0845)"/>
</clipPath>
</defs>
</svg>
