<svg width="31" height="33" viewBox="0 0 31 33" fill="none" xmlns="http://www.w3.org/2000/svg">
<path d="M18.6143 32.0834C19.4842 32.0824 20.354 32.0845 21.2239 32.0895C21.2104 32.0974 21.2239 31.3489 21.2239 31.3489C20.429 31.3426 19.5266 31.3403 18.7638 31.3489C18.4092 31.353 18.2342 31.4744 18.2389 31.7131C18.2419 31.8597 18.3373 32.084 18.6143 32.0834Z" fill="#FE7511"/>
<path d="M25.5112 11.1616C25.4985 11.1673 25.4884 11.1775 25.4826 11.1902C25.4273 11.3043 25.2888 11.3712 25.22 11.4362C24.2015 12.3992 23.4153 13.3979 22.4129 14.1887C21.5791 14.848 20.6098 15.1761 19.5049 15.1731C17.7259 15.1684 15.9469 15.1672 14.1678 15.1695C12.7384 15.1722 10.973 15.6769 10.638 17.4423C10.4742 18.306 10.7029 19.0731 11.3241 19.7437C11.3992 19.8239 11.5957 19.9838 11.9138 20.2234C12.3444 20.5467 12.8795 20.7075 13.5192 20.7057C16.393 20.6998 19.267 20.6959 22.1414 20.6942C22.946 20.6936 23.5398 20.7236 23.9228 20.7842C26.1277 21.1346 28.002 22.5951 29.0946 24.5023C29.6369 25.4502 29.9344 26.4007 30.1024 27.4546C30.2435 28.3373 30.1685 29.187 30.0497 30.0805C29.8487 31.5936 28.957 32.0822 27.5214 32.0858C25.4928 32.0911 23.4639 32.0908 21.4347 32.0849C21.0237 31.1727 20.8173 30.7982 20.6217 30.5486C20.0231 29.7844 19.5192 29.4456 18.5508 29.0515C18.0291 28.8402 17.5457 28.8116 16.9811 28.8116C14.3825 28.8111 11.7842 28.8108 9.18626 28.8108C8.02127 28.8108 6.89292 28.5245 5.82531 27.9904C4.76039 27.4567 3.85836 26.7835 3.11922 25.9709C2.21809 24.98 1.50903 23.7971 0.992056 22.4221C0.88068 22.1249 0.780621 21.7701 0.691877 21.3575C0.58735 20.8716 0.466741 20.3874 0.417605 19.9042C0.320523 18.9436 0.302654 18.0487 0.364001 17.2194C0.60343 13.9703 2.22941 11.1135 4.83454 9.17415C6.18088 8.17106 7.80418 7.48806 9.47929 7.31954C9.85898 7.28209 10.2405 7.23662 10.6228 7.23483C12.5121 7.22532 14.0657 7.22502 15.2837 7.23394C15.8054 7.2381 16.2968 7.20065 16.7578 7.1216C18.2077 6.87372 19.3075 5.64593 20.2348 4.5715C20.2849 4.51325 20.3278 4.45678 20.3635 4.40209C20.3704 4.39141 20.3744 4.37905 20.3748 4.36633C20.3753 4.35361 20.3723 4.341 20.3662 4.32984C20.36 4.31868 20.351 4.30939 20.34 4.30296C20.3289 4.29653 20.3164 4.29319 20.3036 4.29331C19.7033 4.29569 19.0946 4.29004 18.4775 4.27637C17.5484 4.25586 16.7077 3.62726 16.3665 2.77752C16.0949 2.10077 16.2441 1.55241 16.6059 0.952334C16.9865 0.320458 17.5508 0.00511293 18.2989 0.00630179C21.4031 0.00986835 24.5077 0.00778992 27.6125 6.23685e-05C28.1843 -0.00172091 28.6801 0.0321599 29.1429 0.438748C29.5973 0.838203 29.8245 1.36397 29.8245 2.01606C29.8233 5.85012 29.8236 9.68417 29.8254 13.5182C29.8254 14.1763 29.3466 14.8539 28.7569 15.1517C27.9636 15.5524 27.2066 15.5375 26.4859 15.1071C26.0044 14.8191 25.6524 14.1094 25.6363 13.5851C25.6131 12.8052 25.6101 12.025 25.6274 11.2445C25.6292 11.1536 25.5904 11.126 25.5112 11.1616Z" fill="url(#paint0_linear_369_981)"/>
<path d="M6.64808 4.09342C6.62876 4.08698 6.60914 4.08513 6.58922 4.0879C6.55903 4.09204 6.53338 4.08606 6.51225 4.06994L6.3556 3.95388C6.33206 3.93684 6.31757 3.91612 6.31214 3.89171C6.26747 3.69552 6.33266 3.5265 6.50772 3.38465C6.52765 3.36853 6.5524 3.36047 6.58197 3.36047C8.17442 3.35771 9.76535 3.35748 11.3548 3.35978C11.7034 3.36047 12.2829 3.34665 12.2684 3.74249C12.2575 4.01605 11.9768 4.1031 11.6436 4.1031C9.77108 4.10494 8.12703 4.10494 6.71146 4.1031C6.68912 4.1031 6.668 4.09987 6.64808 4.09342Z" fill="#FE7511"/>
<path d="M20.4525 17.2068C21.2296 17.1608 22.0072 17.152 22.7855 17.1805C22.9259 17.1855 23.2248 17.2933 23.3371 17.455C23.4645 17.6414 23.495 17.8737 23.4286 18.152C23.3549 18.4587 23.1774 18.6163 22.896 18.6246C21.9915 18.6514 21.0759 18.6614 20.1491 18.6547C20.1226 18.6547 20.0965 18.6461 20.0728 18.6295C20.049 18.613 20.0283 18.589 20.0123 18.5594C19.9127 18.3752 19.7596 18.1884 19.7361 17.9552C19.6808 17.3986 20.1201 17.2268 20.4525 17.2068Z" fill="#FE7511"/>
<path d="M13.0885 30.9943C14.0058 31.0128 13.9726 32.0775 13.0648 32.0836C11.7051 32.0912 10.3452 32.0915 8.98491 32.0847C8.74397 32.0826 8.55995 31.9336 8.54477 31.6613C8.52295 31.2708 8.52011 30.9882 8.96499 30.982C10.3398 30.9628 11.7143 30.9669 13.0885 30.9943Z" fill="#FE7511"/>
<defs>
<linearGradient id="paint0_linear_369_981" x1="0.341673" y1="0.00987039" x2="27.0837" y2="-2.39098" gradientUnits="userSpaceOnUse">
<stop stop-color="#FFA439"/>
<stop offset="1" stop-color="#FE7511"/>
</linearGradient>
</defs>
</svg>
