<svg width="50" height="50" viewBox="0 0 50 50" fill="none" xmlns="http://www.w3.org/2000/svg">
<path d="M27.6143 32.0833C28.4842 32.0824 29.354 32.0845 30.2239 32.0895C30.2104 32.0974 30.2239 31.3489 30.2239 31.3489C29.429 31.3426 28.5267 31.3403 27.7639 31.3489C27.4092 31.353 27.2342 31.4744 27.2389 31.7131C27.2419 31.8597 27.3373 32.084 27.6143 32.0833Z" fill="#FE7511"/>
<path d="M34.5112 11.1616C34.4985 11.1673 34.4884 11.1775 34.4826 11.1902C34.4272 11.3043 34.2888 11.3712 34.22 11.4362C33.2015 12.3992 32.4153 13.3979 31.4129 14.1887C30.5791 14.848 29.6098 15.1761 28.5049 15.1731C26.7259 15.1684 24.9469 15.1672 23.1678 15.1695C21.7384 15.1722 19.973 15.6769 19.638 17.4423C19.4742 18.306 19.7029 19.0731 20.3241 19.7437C20.3992 19.8239 20.5957 19.9838 20.9138 20.2234C21.3444 20.5467 21.8795 20.7075 22.5192 20.7057C25.393 20.6998 28.267 20.6959 31.1414 20.6942C31.946 20.6936 32.5398 20.7236 32.9228 20.7842C35.1277 21.1346 37.002 22.5951 38.0946 24.5023C38.6369 25.4502 38.9344 26.4007 39.1024 27.4546C39.2435 28.3373 39.1685 29.187 39.0497 30.0805C38.8487 31.5936 37.957 32.0822 36.5214 32.0858C34.4928 32.0911 32.4639 32.0908 30.4347 32.0849C30.0237 31.1727 29.8173 30.7982 29.6217 30.5486C29.0231 29.7844 28.5192 29.4456 27.5508 29.0515C27.0291 28.8402 26.5457 28.8116 25.9811 28.8116C23.3825 28.8111 20.7842 28.8108 18.1863 28.8108C17.0213 28.8108 15.8929 28.5245 14.8253 27.9904C13.7604 27.4566 12.8584 26.7835 12.1192 25.9709C11.2181 24.98 10.509 23.7971 9.99206 22.4221C9.88068 22.1249 9.78062 21.7701 9.69188 21.3575C9.58735 20.8716 9.46674 20.3874 9.4176 19.9042C9.32052 18.9436 9.30265 18.0487 9.364 17.2194C9.60343 13.9703 11.2294 11.1135 13.8345 9.17415C15.1809 8.17106 16.8042 7.48806 18.4793 7.31954C18.859 7.28209 19.2405 7.23662 19.6228 7.23483C21.5121 7.22532 23.0657 7.22502 24.2837 7.23394C24.8054 7.2381 25.2968 7.20065 25.7578 7.1216C27.2077 6.87372 28.3075 5.64593 29.2348 4.5715C29.2849 4.51325 29.3278 4.45678 29.3635 4.40209C29.3704 4.39141 29.3744 4.37905 29.3748 4.36633C29.3753 4.35361 29.3723 4.341 29.3662 4.32984C29.36 4.31868 29.351 4.30939 29.34 4.30296C29.3289 4.29653 29.3164 4.29319 29.3036 4.29331C28.7033 4.29569 28.0946 4.29004 27.4775 4.27637C26.5484 4.25586 25.7077 3.62726 25.3665 2.77752C25.0949 2.10077 25.2441 1.55241 25.6059 0.952334C25.9865 0.320458 26.5508 0.00511293 27.2989 0.00630179C30.4031 0.00986835 33.5077 0.00778992 36.6125 6.23685e-05C37.1843 -0.00172091 37.6801 0.0321599 38.1429 0.438748C38.5973 0.838203 38.8245 1.36397 38.8245 2.01606C38.8233 5.85012 38.8236 9.68417 38.8254 13.5182C38.8254 14.1763 38.3466 14.8539 37.7569 15.1517C36.9636 15.5524 36.2066 15.5375 35.4859 15.1071C35.0044 14.8191 34.6524 14.1094 34.6363 13.5851C34.6131 12.8052 34.6101 12.025 34.6274 11.2445C34.6292 11.1536 34.5904 11.126 34.5112 11.1616Z" fill="url(#paint0_linear_369_957)"/>
<path d="M15.6481 4.09343C15.6288 4.08698 15.6091 4.08514 15.5892 4.0879C15.559 4.09205 15.5334 4.08606 15.5123 4.06994L15.3556 3.95389C15.3321 3.93685 15.3176 3.91612 15.3121 3.89171C15.2675 3.69552 15.3327 3.5265 15.5077 3.38466C15.5277 3.36854 15.5524 3.36048 15.582 3.36048C17.1744 3.35771 18.7654 3.35748 20.3548 3.35979C20.7034 3.36048 21.2829 3.34666 21.2684 3.7425C21.2575 4.01606 20.9768 4.1031 20.6436 4.1031C18.7711 4.10494 17.127 4.10494 15.7115 4.1031C15.6891 4.1031 15.668 4.09988 15.6481 4.09343Z" fill="#FE7511"/>
<path d="M29.4525 17.2068C30.2295 17.1608 31.0072 17.1521 31.7855 17.1805C31.9259 17.1855 32.2247 17.2933 32.3371 17.455C32.4645 17.6414 32.4949 17.8737 32.4285 18.152C32.3549 18.4587 32.1774 18.6163 31.896 18.6246C30.9915 18.6514 30.0759 18.6614 29.1491 18.6547C29.1226 18.6547 29.0965 18.6461 29.0727 18.6295C29.049 18.613 29.0283 18.589 29.0123 18.5594C28.9127 18.3752 28.7596 18.1884 28.7361 17.9552C28.6808 17.3986 29.1201 17.2269 29.4525 17.2068Z" fill="#FE7511"/>
<path d="M22.0885 30.9943C23.0057 31.0128 22.9725 32.0775 22.0647 32.0836C20.7051 32.0912 19.3452 32.0915 17.9849 32.0847C17.7439 32.0826 17.5599 31.9336 17.5447 31.6613C17.5229 31.2708 17.5201 30.9882 17.965 30.982C19.3398 30.9628 20.7143 30.9669 22.0885 30.9943Z" fill="#FE7511"/>
<path d="M23.0336 38.1912C22.8723 38.592 22.6015 38.7969 22.2212 38.8058C21.8426 38.8138 21.3722 38.5399 21.2989 38.064C21.2318 37.6246 21.257 37.1283 21.5769 36.8339C22.419 36.0583 23.4657 37.1159 23.0336 38.1912Z" fill="#171717"/>
<path d="M19.4029 46.1115C19.4097 47.3344 17.5498 47.3335 17.5456 46.0003C17.5377 43.211 17.5354 40.4226 17.5388 37.635C17.5405 36.8607 18.072 36.4709 18.7748 36.5875C19.1224 36.6445 19.4021 36.9159 19.4013 37.2781C19.3939 41.6671 19.3945 44.6116 19.4029 46.1115Z" fill="#171717"/>
<path d="M30.4559 40.4558C30.5316 40.5089 30.5695 40.4883 30.5695 40.3938C30.5701 39.4208 30.5706 38.4505 30.5712 37.4828C30.5712 36.7088 31.1831 36.491 31.8259 36.5893C32.2734 36.6575 32.461 37.1428 32.461 37.5493C32.4621 40.4204 32.4627 43.2912 32.4627 46.1617C32.4627 46.6479 32.066 46.9216 31.6323 46.9446C31.0609 46.9747 30.782 46.7303 30.6426 46.1679C30.6402 46.1577 30.6352 46.1482 30.6281 46.1406C30.621 46.133 30.6121 46.1274 30.6022 46.1244C30.5923 46.1215 30.5819 46.1212 30.5719 46.1237C30.562 46.1262 30.5528 46.1314 30.5454 46.1387C29.4008 47.2599 27.542 47.2528 26.3218 46.415C25.8198 46.0702 25.4147 45.6132 25.1066 45.0441C24.8164 44.5074 24.6577 43.9462 24.6308 43.3606C24.5163 40.857 26.9629 38.7023 29.3466 39.7526C29.7132 39.9138 30.1031 40.2096 30.4559 40.4558ZM28.7804 45.2177C29.8673 45.0361 30.5394 44.3595 30.5058 43.187C30.4576 41.5114 28.406 40.6524 27.1642 41.6611C26.4483 42.2438 26.2977 43.4155 26.746 44.2116C27.1909 45.0016 27.9129 45.362 28.7804 45.2177Z" fill="#171717"/>
<path d="M13.5669 39.0403C12.9564 38.7421 11.9806 38.6049 11.4463 39.1391C11.033 39.5518 11.0545 40.121 11.4869 40.5084C11.6095 40.618 11.8934 40.7375 12.3384 40.8669C12.8708 41.0219 13.4018 41.184 13.9313 41.353C14.686 41.5952 15.347 41.9817 15.7462 42.7188C16.1438 43.4533 16.1182 44.3495 15.8233 45.1312C15.5317 45.905 14.8011 46.5153 14.0622 46.7645C12.7501 47.2076 11.4947 47.0627 10.2958 46.33C9.79463 46.0231 9.36472 45.6978 9.39371 45.0149C9.40144 44.8412 9.45308 44.6876 9.54861 44.5541C10.1632 43.6972 11.1771 44.8007 11.8406 45.0455C12.3984 45.2513 12.9492 45.2635 13.4932 45.0822C14.1624 44.8584 14.4159 43.8957 13.8021 43.3999C13.6431 43.2714 13.3366 43.149 13.1022 43.0773C12.5273 42.9024 11.9538 42.7238 11.3817 42.5413C10.7075 42.3262 9.84184 41.7491 9.54944 41.0208C8.99114 39.6279 9.53204 38.2184 10.7025 37.4341C11.8398 36.6725 13.5934 36.8561 14.7456 37.5477C15.3528 37.9124 15.67 38.6355 15.038 39.2099C14.5335 39.669 14.0465 39.2755 13.5669 39.0403Z" fill="#171717"/>
<path d="M23.1327 46.0756C23.1343 47.3625 21.2982 47.3222 21.2898 45.9848C21.2785 44.1124 21.2715 42.2396 21.2687 40.3666C21.2681 39.6383 21.5861 39.2438 22.2226 39.1833C22.7258 39.1356 23.1352 39.4988 23.1343 40.0565C23.1304 42.0641 23.1298 44.0705 23.1327 46.0756Z" fill="#171717"/>
<path d="M36.9287 43.9596C37.1212 43.4011 37.4013 42.7752 37.5834 42.2888C37.8761 41.5078 38.1591 40.7229 38.4324 39.9339C38.4833 39.7872 38.6025 39.6213 38.7898 39.4364C39.3019 38.9307 40.2626 39.2275 40.2978 39.9949C40.307 40.1909 40.2279 40.492 40.0606 40.8982C39.4162 42.4626 38.8053 44.0428 38.1548 45.6035C37.6582 46.7953 37.1993 48.0732 36.7328 49.0477C36.4905 49.5525 36.0626 49.7818 35.4534 49.9529C35.0255 50.0722 34.4094 49.9658 34.0872 49.6246C33.8457 49.3694 33.6592 48.8665 33.8105 48.504C34.0863 47.8429 34.7307 47.9474 35.2815 47.9557C35.5633 47.9604 35.8417 47.167 35.8873 46.9396C35.9182 46.783 35.9062 46.6298 35.8512 46.4801C35.5573 45.6806 35.2646 44.8805 34.973 44.0798C34.6233 43.12 34.039 41.6453 33.6343 40.3962C33.5347 40.0898 33.5776 39.8158 33.7632 39.5742C34.3346 38.828 35.2669 39.2256 35.5255 40.0448C35.9397 41.3577 36.4329 42.6383 36.8273 43.9577C36.8594 44.0638 36.8932 44.0644 36.9287 43.9596Z" fill="#171717"/>
<defs>
<linearGradient id="paint0_linear_369_957" x1="9.34167" y1="0.00987039" x2="36.0837" y2="-2.39098" gradientUnits="userSpaceOnUse">
<stop stop-color="#FFA439"/>
<stop offset="1" stop-color="#FE7511"/>
</linearGradient>
</defs>
</svg>
