<svg width="35" height="34" viewBox="0 0 35 34" fill="none" xmlns="http://www.w3.org/2000/svg">
<path fill-rule="evenodd" clip-rule="evenodd" d="M33.4215 21.5184C32.3661 20.1499 30.9437 19.0896 29.3099 18.4535L29.2245 18.4234C28.0389 17.9628 26.7513 17.8063 25.4855 17.9691C24.2196 18.1319 23.0182 18.6084 21.9969 19.3529L21.066 20.0287C20.8169 20.2095 20.5091 20.2971 20.199 20.2754C19.8889 20.2537 19.5972 20.1242 19.3773 19.9106L14.5003 15.1727C14.2797 14.959 14.146 14.6751 14.1236 14.3733C14.1013 14.0714 14.1919 13.7719 14.3788 13.5297L15.077 12.6254C15.8424 11.6337 16.3324 10.4675 16.5 9.23874C16.6675 8.01 16.507 6.76004 16.0338 5.60897L16.0001 5.52858C15.3461 3.93956 14.2547 2.55597 12.8453 1.52925L12.354 1.17002C11.5746 0.602374 10.6652 0.226767 9.70364 0.0753837C8.74209 -0.0759998 7.7571 0.00135397 6.83306 0.300816L6.34174 0.459081C5.0157 0.889127 3.81086 1.61306 2.82257 2.57359C1.83427 3.53413 1.08962 4.70492 0.647552 5.99333C-0.11103 8.20371 -0.205218 10.5784 0.37603 12.8389C1.48558 17.149 3.78003 21.0851 7.01408 24.2264L10.0603 27.1857C13.2942 30.3266 17.3459 32.5547 21.7822 33.6319C24.1096 34.1996 26.5533 34.1092 28.8289 33.3706C30.1562 32.941 31.3622 32.217 32.3514 31.2559C33.3407 30.2949 34.086 29.1233 34.5282 27.8339L34.6911 27.3591C34.999 26.4612 35.0782 25.5042 34.922 24.5701C34.7657 23.636 34.3786 22.7526 33.7938 21.9957L33.424 21.5184H33.4215ZM10.2413 4.90306L9.74998 4.54382C9.53232 4.38552 9.27838 4.28088 9.00994 4.23888C8.74151 4.19687 8.46659 4.21876 8.20877 4.30266L7.71745 4.46092C6.32622 4.91311 5.23497 5.97323 4.7695 7.32476C4.27129 8.775 4.20939 10.3332 4.59107 11.8165C5.50969 15.384 7.40907 18.642 10.0861 21.242L13.1324 24.2013C15.8088 26.8019 19.1624 28.6471 22.8347 29.5396C24.3604 29.9089 25.9637 29.8486 27.4558 29.3663C28.8496 28.9141 29.9408 27.854 30.4037 26.5024L30.5692 26.0251C30.6552 25.7745 30.6773 25.5073 30.6336 25.2465C30.5899 24.9857 30.4817 24.7391 30.3184 24.5279L29.9486 24.0506C29.371 23.3016 28.5928 22.7212 27.6988 22.3725L27.6135 22.3398C27.1202 22.1481 26.5844 22.083 26.0576 22.1508C25.5309 22.2186 25.031 22.4169 24.6061 22.7267L23.6751 23.405C22.5895 24.1954 21.2468 24.579 19.8936 24.4853C18.5403 24.3917 17.2672 23.827 16.3079 22.895L11.4308 18.1571C10.4708 17.225 9.88909 15.9877 9.79265 14.6725C9.69622 13.3573 10.0915 12.0524 10.9059 10.9975L11.6041 10.0931C12.2506 9.25408 12.4031 8.14874 12.0023 7.17403L11.9687 7.09364C11.6107 6.2233 11.0131 5.46544 10.2413 4.90306Z" fill="#FE5811"/>
</svg>
