<svg width="530" height="223" viewBox="0 0 530 223" fill="none" xmlns="http://www.w3.org/2000/svg">
<g clip-path="url(#clip0_128_1374)">
<path d="M68.8347 40.0869C69.6818 39.3152 71.0561 38.0151 72.8732 38.4886C74.6902 38.9621 77.4824 41.1816 79.5736 43.438C82.6563 46.763 84.195 50.28 83.9071 53.3394C83.737 55.1416 82.9402 56.6565 81.5999 57.7162C80.4531 58.6251 78.3264 59.3709 74.7035 57.764C72.4338 56.7569 70.0392 55.0005 68.1342 52.9458C65.8344 50.4656 63.4202 47.7918 64.174 45.7409C64.5989 44.5834 65.054 43.9749 66.2341 42.6917C67.2048 41.6372 67.9874 40.8599 68.8347 40.0869ZM68.8991 36.576L62.0313 43.6025C61.4512 44.1963 60.6605 44.1903 59.6607 43.2486C56.3798 40.1575 54.6156 35.0008 58.3051 32.5122C61.799 30.1555 66.8136 32.5676 68.6378 34.4519C69.4662 35.3055 69.5289 35.9326 68.8991 36.576Z" fill="white" fill-opacity="0.25"/>
</g>
<g clip-path="url(#clip1_128_1374)">
<path d="M65.8882 77.9334C66.7352 77.1616 68.1096 75.8615 69.9266 76.335C71.7437 76.8085 74.5359 79.028 76.627 81.2844C79.7098 84.6094 81.2484 88.1264 80.9606 91.1859C80.7904 92.988 79.9937 94.5029 78.6533 95.5626C77.5065 96.4715 75.3799 97.2174 71.7569 95.6105C69.4872 94.6034 67.0926 92.8469 65.1876 90.7923C62.8879 88.312 60.4736 85.6383 61.2275 83.5873C61.6524 82.4299 62.1074 81.8213 63.2875 80.5382C64.2583 79.4836 65.0409 78.7064 65.8882 77.9334ZM65.9525 74.4224L59.0848 81.4489C58.5047 82.0427 57.7139 82.0367 56.7142 81.0951C53.4332 78.0039 51.669 72.8472 55.3586 70.3586C58.8525 68.0019 63.8671 70.414 65.6913 72.2983C66.5197 73.1519 66.5824 73.7791 65.9525 74.4224Z" fill="white" fill-opacity="0.25"/>
</g>
<g clip-path="url(#clip2_128_1374)">
<path d="M111.888 77.9334C112.735 77.1616 114.11 75.8615 115.927 76.335C117.744 76.8085 120.536 79.028 122.627 81.2844C125.71 84.6094 127.248 88.1264 126.961 91.1859C126.79 92.988 125.994 94.5029 124.653 95.5626C123.507 96.4715 121.38 97.2174 117.757 95.6105C115.487 94.6034 113.093 92.8469 111.188 90.7923C108.888 88.312 106.474 85.6383 107.228 83.5873C107.652 82.4299 108.107 81.8213 109.288 80.5382C110.258 79.4836 111.041 78.7064 111.888 77.9334ZM111.953 74.4224L105.085 81.4489C104.505 82.0427 103.714 82.0367 102.714 81.0951C99.4332 78.0039 97.669 72.8472 101.359 70.3586C104.852 68.0019 109.867 70.414 111.691 72.2983C112.52 73.1519 112.582 73.7791 111.953 74.4224Z" fill="white" fill-opacity="0.25"/>
</g>
<g clip-path="url(#clip3_128_1374)">
<path d="M105.888 119.933C106.735 119.162 108.11 117.862 109.927 118.335C111.744 118.809 114.536 121.028 116.627 123.284C119.71 126.609 121.248 130.126 120.961 133.186C120.79 134.988 119.994 136.503 118.653 137.563C117.507 138.472 115.38 139.217 111.757 137.61C109.487 136.603 107.093 134.847 105.188 132.792C102.888 130.312 100.474 127.638 101.228 125.587C101.652 124.43 102.107 123.821 103.288 122.538C104.258 121.484 105.041 120.706 105.888 119.933ZM105.953 116.422L99.0848 123.449C98.5047 124.043 97.7139 124.037 96.7142 123.095C93.4332 120.004 91.669 114.847 95.3586 112.359C98.8525 110.002 103.867 112.414 105.691 114.298C106.52 115.152 106.582 115.779 105.953 116.422Z" fill="white" fill-opacity="0.25"/>
</g>
<g clip-path="url(#clip4_128_1374)">
<path d="M155.888 128.933C156.735 128.162 158.11 126.862 159.927 127.335C161.744 127.809 164.536 130.028 166.627 132.284C169.71 135.609 171.248 139.126 170.961 142.186C170.79 143.988 169.994 145.503 168.653 146.563C167.507 147.472 165.38 148.217 161.757 146.61C159.487 145.603 157.093 143.847 155.188 141.792C152.888 139.312 150.474 136.638 151.228 134.587C151.652 133.43 152.107 132.821 153.288 131.538C154.258 130.484 155.041 129.706 155.888 128.933ZM155.953 125.422L149.085 132.449C148.505 133.043 147.714 133.037 146.714 132.095C143.433 129.004 141.669 123.847 145.359 121.359C148.852 119.002 153.867 121.414 155.691 123.298C156.52 124.152 156.582 124.779 155.953 125.422Z" fill="white" fill-opacity="0.25"/>
</g>
<g clip-path="url(#clip5_128_1374)">
<path d="M146.656 166.644C147.724 166.227 149.473 165.506 150.999 166.599C152.526 167.692 154.337 170.765 155.481 173.621C157.168 177.83 157.344 181.664 155.978 184.418C155.174 186.039 153.887 187.168 152.256 187.677C150.86 188.114 148.607 188.049 145.8 185.25C144.042 183.496 142.436 180.998 141.394 178.398C140.136 175.258 138.84 171.897 140.279 170.252C141.091 169.324 141.733 168.919 143.295 168.144C144.579 167.507 145.588 167.062 146.656 166.644ZM147.975 163.389L139.045 167.488C138.291 167.834 137.555 167.545 136.959 166.308C135.003 162.246 135.204 156.8 139.541 155.799C143.647 154.851 147.464 158.9 148.492 161.312C148.959 162.406 148.793 163.014 147.975 163.389Z" fill="white" fill-opacity="0.25"/>
</g>
<g clip-path="url(#clip6_128_1374)">
<path d="M190.21 181.273C191.277 180.857 193.026 180.135 194.553 181.229C196.08 182.322 197.891 185.394 199.035 188.25C200.721 192.459 200.897 196.294 199.532 199.047C198.727 200.669 197.441 201.797 195.809 202.306C194.413 202.744 192.16 202.678 189.354 199.88C187.596 198.126 185.99 195.628 184.948 193.027C183.69 189.888 182.394 186.526 183.833 184.882C184.644 183.953 185.287 183.548 186.848 182.773C188.133 182.137 189.142 181.691 190.21 181.273ZM191.528 178.019L182.599 182.117C181.844 182.464 181.108 182.175 180.512 180.937C178.557 176.876 178.758 171.429 183.094 170.428C187.201 169.48 191.018 173.529 192.045 175.942C192.513 177.036 192.347 177.644 191.528 178.019Z" fill="white" fill-opacity="0.25"/>
</g>
<g clip-path="url(#clip7_128_1374)">
<path d="M176.21 222.273C177.277 221.857 179.026 221.135 180.553 222.229C182.08 223.322 183.891 226.394 185.035 229.25C186.721 233.459 186.897 237.294 185.532 240.047C184.727 241.669 183.441 242.797 181.809 243.306C180.413 243.744 178.16 243.678 175.354 240.88C173.596 239.126 171.99 236.628 170.948 234.027C169.69 230.888 168.394 227.526 169.833 225.882C170.644 224.953 171.287 224.548 172.848 223.773C174.133 223.137 175.142 222.691 176.21 222.273ZM177.528 219.019L168.599 223.117C167.844 223.464 167.108 223.175 166.512 221.937C164.557 217.876 164.758 212.429 169.094 211.428C173.201 210.48 177.018 214.529 178.045 216.942C178.513 218.036 178.347 218.644 177.528 219.019Z" fill="white" fill-opacity="0.25"/>
</g>
<g clip-path="url(#clip8_128_1374)">
<path d="M15.1897 56.4931C15.5183 55.3953 16.0267 53.5731 17.8281 53.0431C19.6295 52.5131 23.166 52.9775 26.1206 53.8346C30.4756 55.097 33.6058 57.3191 34.9348 60.0899C35.7171 61.7223 35.8144 63.4311 35.2113 65.0298C34.6964 66.3995 33.2577 68.1341 29.3246 68.6227C26.8604 68.9285 23.9032 68.6562 21.212 67.8762C17.9633 66.9346 14.5168 65.8862 14.1067 63.7399C13.8748 62.529 13.9514 61.7729 14.3021 60.0653C14.5911 58.6614 14.8615 57.5921 15.1897 56.4931ZM13.4366 53.4505L11.1687 63.0105C10.9773 63.8183 10.2964 64.2204 8.95445 63.9282C4.55005 62.9684 0.381938 59.4568 2.26275 55.4234C4.04385 51.6039 9.58453 51.0887 12.1186 51.7644C13.2684 52.0694 13.6451 52.5746 13.4366 53.4505Z" fill="white" fill-opacity="0.25"/>
</g>
<defs>
<clipPath id="clip0_128_1374">
<rect width="17" height="34" fill="white" transform="translate(87.0527 54.0537) rotate(146)"/>
</clipPath>
<clipPath id="clip1_128_1374">
<rect width="17" height="34" fill="white" transform="translate(84.1062 91.9001) rotate(146)"/>
</clipPath>
<clipPath id="clip2_128_1374">
<rect width="17" height="34" fill="white" transform="translate(130.106 91.9001) rotate(146)"/>
</clipPath>
<clipPath id="clip3_128_1374">
<rect width="17" height="34" fill="white" transform="translate(124.106 133.9) rotate(146)"/>
</clipPath>
<clipPath id="clip4_128_1374">
<rect width="17" height="34" fill="white" transform="translate(174.106 142.9) rotate(146)"/>
</clipPath>
<clipPath id="clip5_128_1374">
<rect width="17" height="34" fill="white" transform="translate(158.659 186.212) rotate(167)"/>
</clipPath>
<clipPath id="clip6_128_1374">
<rect width="17" height="34" fill="white" transform="translate(202.213 200.841) rotate(167)"/>
</clipPath>
<clipPath id="clip7_128_1374">
<rect width="17" height="34" fill="white" transform="translate(188.213 241.841) rotate(167)"/>
</clipPath>
<clipPath id="clip8_128_1374">
<rect width="17" height="34" fill="white" transform="translate(37.999 59.082) rotate(115)"/>
</clipPath>
</defs>
</svg>
