<svg width="522" height="385" viewBox="0 0 522 385" fill="none" xmlns="http://www.w3.org/2000/svg">
<g clip-path="url(#clip0_127_802)">
<path d="M51.2701 40.0869C52.1359 39.3152 53.5407 38.0151 55.398 38.4886C57.2553 38.9621 60.1093 41.1816 62.2467 43.438C65.3977 46.763 66.9704 50.28 66.6762 53.3394C66.5023 55.1416 65.6879 56.6565 64.3179 57.7162C63.1457 58.6251 60.972 59.3709 57.2688 57.764C54.9488 56.7569 52.5012 55.0005 50.554 52.9458C48.2034 50.4656 45.7357 47.7918 46.5063 45.7409C46.9405 44.5834 47.4057 43.9749 48.6119 42.6917C49.6041 41.6372 50.404 40.8599 51.2701 40.0869ZM51.3359 36.576L44.3161 43.6025C43.7231 44.1963 42.9149 44.1903 41.893 43.2486C38.5394 40.1575 36.7361 35.0008 40.5074 32.5122C44.0786 30.1555 49.2043 32.5676 51.0688 34.4519C51.9156 35.3055 51.9797 35.9326 51.3359 36.576Z" fill="white" fill-opacity="0.25"/>
</g>
<g clip-path="url(#clip1_127_802)">
<path d="M48.2583 77.9331C49.1241 77.1614 50.5289 75.8613 52.3862 76.3348C54.2435 76.8083 57.0975 79.0278 59.2349 81.2842C62.3859 84.6092 63.9587 88.1262 63.6644 91.1856C63.4905 92.9878 62.6761 94.5027 61.3061 95.5624C60.1339 96.4713 57.9602 97.2171 54.257 95.6102C51.9371 94.6031 49.4895 92.8467 47.5423 90.792C45.1916 88.3118 42.7239 85.638 43.4945 83.5871C43.9288 82.4296 44.3939 81.821 45.6001 80.5379C46.5924 79.4834 47.3923 78.7061 48.2583 77.9331ZM48.3241 74.4222L41.3043 81.4487C40.7113 82.0425 39.9031 82.0365 38.8812 81.0948C35.5276 78.0037 33.7244 72.847 37.4956 70.3584C41.0669 68.0017 46.1925 70.4138 48.0571 72.2981C48.9038 73.1517 48.9679 73.7788 48.3241 74.4222Z" fill="white" fill-opacity="0.25"/>
</g>
<g clip-path="url(#clip2_127_802)">
<path d="M95.2768 77.9331C96.1426 77.1614 97.5474 75.8613 99.4046 76.3348C101.262 76.8083 104.116 79.0278 106.253 81.2842C109.404 84.6092 110.977 88.1262 110.683 91.1856C110.509 92.9878 109.695 94.5027 108.325 95.5624C107.152 96.4713 104.979 97.2171 101.275 95.6102C98.9555 94.6031 96.5079 92.8467 94.5607 90.792C92.2101 88.3118 89.7423 85.638 90.5129 83.5871C90.9472 82.4296 91.4123 81.821 92.6185 80.5379C93.6108 79.4834 94.4107 78.7061 95.2768 77.9331ZM95.3425 74.4222L88.3227 81.4487C87.7298 82.0425 86.9215 82.0365 85.8997 81.0948C82.5461 78.0037 80.7428 72.847 84.514 70.3584C88.0853 68.0017 93.2109 70.4138 95.0755 72.2981C95.9222 73.1517 95.9863 73.7788 95.3425 74.4222Z" fill="white" fill-opacity="0.25"/>
</g>
<g clip-path="url(#clip3_127_802)">
<path d="M89.1439 119.933C90.0098 119.161 91.4145 117.861 93.2718 118.335C95.1291 118.808 97.9831 121.028 100.121 123.284C103.272 126.609 104.844 130.126 104.55 133.186C104.376 134.988 103.562 136.503 102.192 137.562C101.02 138.471 98.8458 139.217 95.1426 137.61C92.8227 136.603 90.3751 134.847 88.4279 132.792C86.0772 130.312 83.6095 127.638 84.3801 125.587C84.8144 124.43 85.2795 123.821 86.4857 122.538C87.478 121.483 88.2779 120.706 89.1439 119.933ZM89.2097 116.422L82.1899 123.449C81.597 124.042 80.7887 124.036 79.7669 123.095C76.4132 120.004 74.61 114.847 78.3812 112.358C81.9525 110.002 87.0781 112.414 88.9427 114.298C89.7894 115.152 89.8535 115.779 89.2097 116.422Z" fill="white" fill-opacity="0.25"/>
</g>
<g clip-path="url(#clip4_127_802)">
<path d="M140.251 128.933C141.117 128.161 142.521 126.861 144.379 127.335C146.236 127.808 149.09 130.028 151.228 132.284C154.378 135.609 155.951 139.126 155.657 142.186C155.483 143.988 154.669 145.503 153.299 146.562C152.126 147.471 149.953 148.217 146.25 146.61C143.93 145.603 141.482 143.847 139.535 141.792C137.184 139.312 134.716 136.638 135.487 134.587C135.921 133.43 136.386 132.821 137.593 131.538C138.585 130.483 139.385 129.706 140.251 128.933ZM140.317 125.422L133.297 132.449C132.704 133.042 131.896 133.036 130.874 132.095C127.52 129.004 125.717 123.847 129.488 121.358C133.059 119.002 138.185 121.414 140.05 123.298C140.896 124.152 140.96 124.779 140.317 125.422Z" fill="white" fill-opacity="0.25"/>
</g>
<g clip-path="url(#clip5_127_802)">
<path d="M130.815 166.644C131.906 166.227 133.693 165.505 135.254 166.599C136.814 167.692 138.666 170.765 139.835 173.621C141.559 177.829 141.739 181.664 140.343 184.417C139.521 186.039 138.205 187.168 136.538 187.677C135.111 188.114 132.808 188.048 129.94 185.25C128.143 183.496 126.501 180.998 125.436 178.397C124.15 175.258 122.826 171.896 124.296 170.252C125.126 169.323 125.783 168.918 127.379 168.143C128.692 167.507 129.723 167.062 130.815 166.644ZM132.162 163.389L123.035 167.488C122.264 167.834 121.511 167.545 120.902 166.308C118.904 162.246 119.109 156.8 123.542 155.798C127.739 154.85 131.64 158.899 132.691 161.312C133.169 162.406 132.999 163.014 132.162 163.389Z" fill="white" fill-opacity="0.25"/>
</g>
<g clip-path="url(#clip6_127_802)">
<path d="M175.333 181.273C176.424 180.857 178.211 180.135 179.772 181.229C181.332 182.322 183.184 185.394 184.353 188.25C186.076 192.459 186.256 196.294 184.861 199.047C184.038 200.669 182.723 201.797 181.056 202.306C179.629 202.744 177.326 202.678 174.458 199.88C172.661 198.126 171.019 195.628 169.954 193.027C168.668 189.888 167.343 186.526 168.814 184.882C169.643 183.953 170.301 183.548 171.897 182.773C173.209 182.137 174.241 181.691 175.333 181.273ZM176.68 178.019L167.553 182.117C166.782 182.464 166.029 182.175 165.42 180.937C163.422 176.876 163.627 171.429 168.059 170.428C172.257 169.48 176.158 173.529 177.209 175.942C177.687 177.036 177.517 177.644 176.68 178.019Z" fill="white" fill-opacity="0.25"/>
</g>
<g clip-path="url(#clip7_127_802)">
<path d="M161.023 222.273C162.114 221.857 163.901 221.135 165.462 222.229C167.022 223.322 168.874 226.394 170.043 229.25C171.766 233.459 171.946 237.294 170.551 240.047C169.728 241.669 168.413 242.797 166.746 243.306C165.319 243.744 163.016 243.678 160.148 240.88C158.351 239.126 156.709 236.628 155.644 234.027C154.358 230.888 153.033 227.526 154.504 225.882C155.333 224.953 155.991 224.548 157.587 223.773C158.899 223.137 159.931 222.691 161.023 222.273ZM162.37 219.019L153.243 223.117C152.472 223.464 151.719 223.175 151.11 221.937C149.112 217.876 149.317 212.429 153.749 211.428C157.947 210.48 161.848 214.529 162.899 216.942C163.377 218.036 163.207 218.644 162.37 219.019Z" fill="white" fill-opacity="0.25"/>
</g>
<g clip-path="url(#clip8_127_802)">
<path d="M202.93 240.273C204.021 239.857 205.809 239.135 207.369 240.229C208.93 241.322 210.781 244.394 211.95 247.25C213.674 251.459 213.854 255.294 212.459 258.047C211.636 259.669 210.321 260.797 208.654 261.306C207.227 261.744 204.924 261.678 202.055 258.88C200.258 257.126 198.617 254.628 197.552 252.027C196.266 248.888 194.941 245.526 196.412 243.882C197.241 242.953 197.898 242.548 199.494 241.773C200.807 241.137 201.839 240.691 202.93 240.273ZM204.278 237.019L195.15 241.117C194.379 241.464 193.627 241.175 193.018 239.937C191.019 235.876 191.225 230.429 195.657 229.428C199.854 228.48 203.756 232.529 204.807 234.942C205.284 236.036 205.114 236.644 204.278 237.019Z" fill="white" fill-opacity="0.25"/>
</g>
<g clip-path="url(#clip9_127_802)">
<path d="M188.531 294.69C189.34 293.861 190.649 292.468 192.535 292.814C194.422 293.16 197.427 295.179 199.72 297.284C203.101 300.386 204.92 303.787 204.845 306.859C204.8 308.669 204.095 310.235 202.804 311.386C201.7 312.373 199.585 313.265 195.776 311.915C193.39 311.068 190.823 309.483 188.734 307.567C186.212 305.253 183.56 302.754 184.182 300.655C184.533 299.471 184.954 298.832 186.065 297.47C186.98 296.35 187.723 295.52 188.531 294.69ZM188.347 291.183L181.845 298.672C181.296 299.305 180.489 299.354 179.403 298.484C175.837 295.629 173.67 290.608 177.255 287.868C180.649 285.274 185.934 287.33 187.929 289.083C188.834 289.876 188.943 290.498 188.347 291.183Z" fill="white" fill-opacity="0.25"/>
</g>
<g clip-path="url(#clip10_127_802)">
<path d="M236.631 291.843C237.44 291.014 238.748 289.622 240.635 289.967C242.521 290.313 245.527 292.332 247.82 294.437C251.2 297.539 253.02 300.94 252.944 304.012C252.899 305.822 252.195 307.389 250.904 308.539C249.799 309.526 247.684 310.418 243.875 309.068C241.489 308.222 238.922 306.637 236.833 304.72C234.312 302.406 231.659 299.907 232.282 297.809C232.633 296.624 233.053 295.986 234.165 294.623C235.08 293.504 235.822 292.674 236.631 291.843ZM236.446 288.337L229.945 295.825C229.395 296.458 228.589 296.507 227.502 295.637C223.936 292.783 221.77 287.762 225.354 285.022C228.749 282.427 234.034 284.483 236.028 286.236C236.934 287.03 237.043 287.651 236.446 288.337Z" fill="white" fill-opacity="0.25"/>
</g>
<g clip-path="url(#clip11_127_802)">
<path d="M296.289 330.492C296.778 329.451 297.552 327.717 299.451 327.443C301.349 327.169 304.863 328.121 307.732 329.381C311.96 331.237 314.812 333.873 315.763 336.802C316.323 338.527 316.178 340.233 315.34 341.732C314.624 343.017 312.921 344.535 308.871 344.471C306.333 344.431 303.379 343.75 300.766 342.603C297.611 341.218 294.272 339.7 294.162 337.518C294.1 336.286 294.285 335.548 294.883 333.906C295.375 332.556 295.801 331.535 296.289 330.492ZM294.947 327.235L291.292 336.387C290.983 337.16 290.237 337.463 288.92 336.987C284.599 335.424 280.879 331.366 283.357 327.634C285.703 324.099 291.384 324.36 293.853 325.382C294.974 325.844 295.283 326.397 294.947 327.235Z" fill="white" fill-opacity="0.25"/>
</g>
<g clip-path="url(#clip12_127_802)">
<path d="M325.564 365.861C325.939 364.776 326.524 362.972 328.383 362.505C330.242 362.039 333.838 362.626 336.825 363.586C341.229 364.999 344.347 367.33 345.606 370.145C346.347 371.804 346.385 373.515 345.712 375.091C345.137 376.442 343.606 378.126 339.571 378.477C337.043 378.696 334.031 378.321 331.31 377.448C328.025 376.393 324.542 375.225 324.2 373.066C324.006 371.848 324.111 371.095 324.53 369.4C324.876 368.007 325.19 366.948 325.564 365.861ZM323.882 362.759L321.224 372.234C321 373.035 320.29 373.413 318.93 373.074C314.465 371.961 310.332 368.306 312.397 364.341C314.353 360.586 320.031 360.265 322.596 361.028C323.76 361.373 324.126 361.891 323.882 362.759Z" fill="white" fill-opacity="0.25"/>
</g>
<g clip-path="url(#clip13_127_802)">
<path d="M376.231 346.531C376.387 345.395 376.609 343.516 378.343 342.71C380.077 341.905 383.721 341.811 386.841 342.195C391.44 342.76 394.955 344.466 396.74 346.994C397.791 348.484 398.162 350.157 397.809 351.83C397.508 353.264 396.333 355.202 392.44 356.3C390.002 356.987 386.973 357.181 384.131 356.831C380.701 356.41 377.054 355.913 376.296 353.858C375.869 352.698 375.825 351.939 375.906 350.198C375.973 348.766 376.075 347.667 376.231 346.531ZM373.975 343.8L373.214 353.597C373.15 354.425 372.526 354.928 371.125 354.85C366.525 354.591 361.756 351.774 363.009 347.496C364.197 343.445 369.708 342.07 372.374 342.341C373.584 342.462 374.045 342.902 373.975 343.8Z" fill="white" fill-opacity="0.25"/>
</g>
<g clip-path="url(#clip14_127_802)">
<path d="M427.009 366.096C427.165 364.96 427.387 363.081 429.121 362.275C430.855 361.47 434.499 361.376 437.619 361.76C442.218 362.325 445.733 364.031 447.518 366.559C448.569 368.049 448.94 369.722 448.587 371.395C448.286 372.829 447.111 374.767 443.218 375.865C440.78 376.552 437.751 376.746 434.909 376.396C431.479 375.975 427.832 375.478 427.074 373.423C426.647 372.263 426.603 371.504 426.684 369.763C426.751 368.331 426.853 367.232 427.009 366.096ZM424.753 363.365L423.992 373.162C423.928 373.99 423.305 374.493 421.903 374.414C417.303 374.156 412.534 371.339 413.788 367.061C414.975 363.01 420.486 361.635 423.153 361.905C424.362 362.027 424.823 362.467 424.753 363.365Z" fill="white" fill-opacity="0.25"/>
</g>
<g clip-path="url(#clip15_127_802)">
<path d="M473.005 335.096C473.162 333.96 473.383 332.081 475.117 331.275C476.851 330.47 480.496 330.376 483.616 330.76C488.214 331.325 491.729 333.031 493.514 335.559C494.565 337.049 494.937 338.722 494.583 340.395C494.282 341.829 493.107 343.767 489.215 344.865C486.776 345.552 483.747 345.746 480.905 345.396C477.475 344.975 473.828 344.478 473.071 342.423C472.643 341.263 472.599 340.504 472.68 338.763C472.748 337.331 472.85 336.232 473.005 335.096ZM470.749 332.365L469.988 342.162C469.924 342.99 469.301 343.493 467.899 343.414C463.299 343.156 458.53 340.339 459.784 336.061C460.971 332.01 466.482 330.635 469.149 330.905C470.358 331.027 470.819 331.467 470.749 332.365Z" fill="white" fill-opacity="0.25"/>
</g>
<g clip-path="url(#clip16_127_802)">
<path d="M498.559 369.096C498.715 367.96 498.937 366.081 500.671 365.275C502.405 364.47 506.049 364.376 509.169 364.76C513.768 365.325 517.283 367.031 519.068 369.559C520.119 371.049 520.49 372.722 520.137 374.395C519.836 375.829 518.661 377.767 514.768 378.865C512.329 379.552 509.3 379.746 506.459 379.396C503.029 378.975 499.381 378.478 498.624 376.423C498.196 375.263 498.153 374.504 498.234 372.763C498.301 371.331 498.403 370.232 498.559 369.096ZM496.302 366.365L495.542 376.162C495.477 376.99 494.854 377.493 493.453 377.414C488.853 377.156 484.083 374.339 485.337 370.061C486.525 366.01 492.036 364.635 494.702 364.905C495.912 365.027 496.373 365.467 496.302 366.365Z" fill="white" fill-opacity="0.25"/>
</g>
<g clip-path="url(#clip17_127_802)">
<path d="M9.72523 49.4931C10.0611 48.3953 10.5808 46.5731 12.4221 46.0431C14.2634 45.5131 17.8781 45.9775 20.8982 46.8346C25.3495 48.097 28.5491 50.3191 29.9075 53.0899C30.7071 54.7223 30.8066 56.4311 30.1901 58.0298C29.6638 59.3995 28.1932 61.1341 24.173 61.6227C21.6543 61.9285 18.6316 61.6562 15.8809 60.8762C12.5603 59.9346 9.03749 58.8862 8.61829 56.7399C8.38121 55.529 8.45951 54.7729 8.81795 53.0653C9.11334 51.6614 9.3898 50.5921 9.72523 49.4931ZM7.9333 46.4505L5.61519 56.0105C5.41953 56.8183 4.72357 57.2204 3.35194 56.9282C-1.14997 55.9684 -5.41036 52.4568 -3.4879 48.4234C-1.66737 44.6039 3.99597 44.0887 6.58619 44.7644C7.76137 45.0694 8.14646 45.5746 7.9333 46.4505Z" fill="white" fill-opacity="0.25"/>
</g>
<g clip-path="url(#clip18_127_802)">
<path d="M0.52601 12.4931C0.86188 11.3953 1.38159 9.57308 3.22286 9.04311C5.06414 8.51314 8.67893 8.97753 11.6989 9.83459C16.1503 11.097 19.3499 13.3191 20.7083 16.0899C21.5079 17.7223 21.6074 19.4311 20.9909 21.0298C20.4646 22.3995 18.994 24.1341 14.9738 24.6227C12.4551 24.9285 9.4324 24.6562 6.68167 23.8762C3.36107 22.9346 -0.161732 21.8862 -0.580924 19.7399C-0.81801 18.529 -0.73971 17.7729 -0.38127 16.0653C-0.0858745 14.6614 0.190577 13.5921 0.52601 12.4931ZM-1.26592 9.45053L-3.58402 19.0105C-3.77968 19.8183 -4.47565 20.2204 -5.84728 19.9282C-10.3492 18.9684 -14.6096 15.4568 -12.6871 11.4234C-10.8666 7.60386 -5.20325 7.08875 -2.61303 7.76436C-1.43785 8.0694 -1.05276 8.57465 -1.26592 9.45053Z" fill="white" fill-opacity="0.25"/>
</g>
<g clip-path="url(#clip19_127_802)">
<path d="M248.249 346.492C248.737 345.451 249.511 343.717 251.41 343.443C253.309 343.169 256.822 344.121 259.691 345.381C263.919 347.237 266.772 349.873 267.723 352.802C268.282 354.527 268.138 356.233 267.3 357.732C266.584 359.017 264.881 360.535 260.83 360.471C258.293 360.431 255.338 359.75 252.725 358.603C249.571 357.218 246.231 355.7 246.122 353.518C246.059 352.286 246.244 351.548 246.842 349.906C247.334 348.556 247.76 347.535 248.249 346.492ZM246.907 343.235L243.251 352.387C242.943 353.16 242.196 353.463 240.88 352.987C236.558 351.424 232.839 347.366 235.316 343.634C237.662 340.099 243.344 340.36 245.813 341.382C246.933 341.844 247.243 342.397 246.907 343.235Z" fill="white" fill-opacity="0.25"/>
</g>
<defs>
<clipPath id="clip0_127_802">
<rect width="17.2596" height="34.2372" fill="white" transform="matrix(-0.834648 0.550783 -0.567614 -0.823295 69.8914 54.0537)"/>
</clipPath>
<clipPath id="clip1_127_802">
<rect width="17.2596" height="34.2372" fill="white" transform="matrix(-0.834648 0.550783 -0.567614 -0.823295 66.8796 91.8999)"/>
</clipPath>
<clipPath id="clip2_127_802">
<rect width="17.2596" height="34.2372" fill="white" transform="matrix(-0.834648 0.550783 -0.567614 -0.823295 113.898 91.8999)"/>
</clipPath>
<clipPath id="clip3_127_802">
<rect width="17.2596" height="34.2372" fill="white" transform="matrix(-0.834648 0.550783 -0.567614 -0.823295 107.765 133.9)"/>
</clipPath>
<clipPath id="clip4_127_802">
<rect width="17.2596" height="34.2372" fill="white" transform="matrix(-0.834648 0.550783 -0.567614 -0.823295 158.872 142.9)"/>
</clipPath>
<clipPath id="clip5_127_802">
<rect width="17.3575" height="34.0385" fill="white" transform="matrix(-0.975428 0.220318 -0.229671 -0.973268 143.083 186.211)"/>
</clipPath>
<clipPath id="clip6_127_802">
<rect width="17.3575" height="34.0385" fill="white" transform="matrix(-0.975428 0.220318 -0.229671 -0.973268 187.601 200.841)"/>
</clipPath>
<clipPath id="clip7_127_802">
<rect width="17.3575" height="34.0385" fill="white" transform="matrix(-0.975428 0.220318 -0.229671 -0.973268 173.291 241.841)"/>
</clipPath>
<clipPath id="clip8_127_802">
<rect width="17.3575" height="34.0385" fill="white" transform="matrix(-0.975428 0.220318 -0.229671 -0.973268 215.199 259.841)"/>
</clipPath>
<clipPath id="clip9_127_802">
<rect width="17.2347" height="34.2873" fill="white" transform="matrix(-0.794489 0.607278 -0.62402 -0.781409 208.103 307.352)"/>
</clipPath>
<clipPath id="clip10_127_802">
<rect width="17.2347" height="34.2873" fill="white" transform="matrix(-0.794489 0.607278 -0.62402 -0.781409 256.203 304.505)"/>
</clipPath>
<clipPath id="clip11_127_802">
<rect width="17.1125" height="34.5312" fill="white" transform="matrix(-0.553037 0.833156 -0.844052 -0.536261 319.008 336.23)"/>
</clipPath>
<clipPath id="clip12_127_802">
<rect width="17.0783" height="34.5989" fill="white" transform="matrix(-0.461915 0.886924 -0.894967 -0.446131 348.772 369.245)"/>
</clipPath>
<clipPath id="clip13_127_802">
<rect width="17.0289" height="34.6961" fill="white" transform="matrix(-0.281262 0.959631 -0.96283 -0.270107 399.672 345.52)"/>
</clipPath>
<clipPath id="clip14_127_802">
<rect width="17.0289" height="34.6961" fill="white" transform="matrix(-0.281262 0.959631 -0.96283 -0.270107 450.45 365.084)"/>
</clipPath>
<clipPath id="clip15_127_802">
<rect width="17.0289" height="34.6961" fill="white" transform="matrix(-0.281262 0.959631 -0.96283 -0.270107 496.447 334.084)"/>
</clipPath>
<clipPath id="clip16_127_802">
<rect width="17.0289" height="34.6961" fill="white" transform="matrix(-0.281262 0.959631 -0.96283 -0.270107 522 368.084)"/>
</clipPath>
<clipPath id="clip17_127_802">
<rect width="17.0678" height="34.6195" fill="white" transform="matrix(-0.430258 0.902706 -0.909796 -0.415056 33.0395 52.082)"/>
</clipPath>
<clipPath id="clip18_127_802">
<rect width="17.0678" height="34.6195" fill="white" transform="matrix(-0.430258 0.902706 -0.909796 -0.415056 23.8403 15.082)"/>
</clipPath>
<clipPath id="clip19_127_802">
<rect width="17.1125" height="34.5312" fill="white" transform="matrix(-0.553037 0.833156 -0.844052 -0.536261 270.968 352.23)"/>
</clipPath>
</defs>
</svg>
