<svg width="1095" height="700" viewBox="0 0 1095 700" fill="none" xmlns="http://www.w3.org/2000/svg">
<path fill-rule="evenodd" clip-rule="evenodd" d="M14.526 5.49312L14.5477 5.42184C14.8846 4.31832 15.4208 2.56148 17.2229 2.04293C19.0642 1.51314 22.679 1.9775 25.699 2.83443C30.1503 4.09664 33.3499 6.31881 34.7083 9.0898C35.5079 10.7221 35.6074 12.4311 34.9909 14.0297C34.4646 15.3994 32.994 17.1342 28.9738 17.6225C26.4551 17.9282 23.4324 17.6562 20.6817 16.8759C17.3611 15.9345 13.8383 14.8862 13.4191 12.7397C13.182 11.5288 13.2603 10.7729 13.6187 9.06539C13.9141 7.66109 14.1906 6.59176 14.526 5.49312ZM12.7341 2.45064L10.416 12.0102C10.2204 12.8183 9.52437 13.2202 8.15272 12.9282C3.65083 11.9682 -0.609543 8.4565 1.31288 4.4233C3.13344 0.603964 8.79677 0.0888276 11.387 0.764121C12.5622 1.0693 12.9473 1.57467 12.7341 2.45064ZM65.3261 33.0371L65.2702 33.0869C64.4041 33.8598 63.6041 34.6372 62.6119 35.6919C61.4057 36.9746 60.9406 37.5835 60.5063 38.7407C59.7357 40.792 62.2034 43.4653 64.5541 45.9458C66.5012 48.0004 68.9489 49.7568 71.2688 50.7641C74.972 52.3711 77.1457 51.625 78.3179 50.7163C79.6879 49.6562 80.5023 48.1416 80.6762 46.3393C80.9705 43.2797 79.3977 39.7631 76.2468 36.4379C74.1093 34.1816 71.2553 31.9619 69.398 31.4887C67.5802 31.0249 66.1959 32.2607 65.3261 33.0371ZM58.3161 36.6025L65.3359 29.5761C65.9797 28.9326 65.9156 28.3056 65.0689 27.4516C63.2043 25.5673 58.0787 23.1552 54.5074 25.5122C50.7362 28.0004 52.5394 33.1572 55.8931 36.2485C56.9149 37.1904 57.7232 37.1962 58.3161 36.6025ZM62.3143 70.8833L62.2584 70.9331C61.3923 71.706 60.5924 72.4834 59.6001 73.538C58.3939 74.8212 57.9288 75.4296 57.4945 76.5874C56.724 78.6381 59.1917 81.312 61.5423 83.792C63.4895 85.8466 65.9371 87.6035 68.257 88.6103C71.9602 90.2172 74.1339 89.4716 75.3061 88.5625C76.6762 87.5029 77.4905 85.9878 77.6644 84.186C77.9587 81.1264 76.3859 77.6093 73.235 74.2841C71.0975 72.0278 68.2435 69.8086 66.3862 69.3349C64.5684 68.8715 63.1842 70.1069 62.3143 70.8833ZM55.3043 74.4487L62.3241 67.4223C62.9679 66.7788 62.9038 66.1518 62.0571 65.2983C60.1925 63.414 55.0669 61.0019 51.4956 63.3584C47.7244 65.8471 49.5277 71.0039 52.8813 74.0952C53.9032 75.0366 54.7114 75.0424 55.3043 74.4487ZM109.277 70.9331L109.333 70.8833C110.203 70.1069 111.587 68.8715 113.405 69.3349C115.262 69.8086 118.116 72.0278 120.253 74.2841C123.404 77.6093 124.977 81.1264 124.683 84.186C124.509 85.9878 123.695 87.5029 122.325 88.5625C121.152 89.4716 118.979 90.2172 115.275 88.6103C112.956 87.6035 110.508 85.8466 108.561 83.792C106.21 81.312 103.742 78.6381 104.513 76.5874C104.947 75.4296 105.412 74.8212 106.619 73.538C107.611 72.4834 108.411 71.706 109.277 70.9331ZM109.343 67.4223L102.323 74.4487C101.73 75.0424 100.922 75.0366 99.8997 74.0952C96.5461 71.0039 94.7428 65.8471 98.5141 63.3584C102.085 61.0019 107.211 63.414 109.076 65.2983C109.922 66.1518 109.986 66.7788 109.343 67.4223ZM103.2 112.883L103.144 112.933C102.278 113.706 101.478 114.483 100.486 115.538C99.2795 116.821 98.8144 117.43 98.3801 118.587C97.6096 120.638 100.077 123.312 102.428 125.792C104.375 127.847 106.823 129.603 109.143 130.61C112.846 132.217 115.02 131.472 116.192 130.562C117.562 129.503 118.376 127.988 118.55 126.186C118.844 123.126 117.272 119.609 114.121 116.284C111.983 114.028 109.129 111.809 107.272 111.335C105.454 110.872 104.07 112.107 103.2 112.883ZM96.19 116.449L103.21 109.422C103.854 108.779 103.789 108.152 102.943 107.298C101.078 105.414 95.9525 103.002 92.3812 105.358C88.61 107.847 90.4133 113.004 93.7669 116.095C94.7888 117.037 95.597 117.042 96.19 116.449ZM154.251 121.933L154.307 121.883C155.177 121.107 156.561 119.872 158.379 120.335C160.236 120.809 163.09 123.028 165.228 125.284C168.379 128.609 169.951 132.126 169.657 135.186C169.483 136.988 168.669 138.503 167.299 139.562C166.126 140.472 163.953 141.217 160.25 139.61C157.93 138.603 155.482 136.847 153.535 134.792C151.184 132.312 148.717 129.638 149.487 127.587C149.921 126.43 150.386 125.821 151.593 124.538C152.585 123.483 153.385 122.706 154.251 121.933ZM154.317 118.422L147.297 125.449C146.704 126.042 145.896 126.037 144.874 125.095C141.52 122.004 139.717 116.847 143.488 114.358C147.059 112.002 152.185 114.414 154.05 116.298C154.896 117.152 154.96 117.779 154.317 118.422ZM144.885 159.617L144.815 159.644C143.723 160.061 142.692 160.507 141.379 161.144C139.783 161.918 139.126 162.324 138.296 163.252C136.826 164.896 138.15 168.258 139.436 171.397C140.501 173.998 142.143 176.496 143.94 178.25C146.808 181.048 149.111 181.114 150.538 180.677C152.206 180.167 153.521 179.039 154.343 177.417C155.739 174.665 155.559 170.83 153.835 166.621C152.666 163.765 150.814 160.692 149.254 159.599C147.727 158.529 145.982 159.197 144.885 159.617ZM137.035 160.488L146.162 156.389C146.999 156.014 147.169 155.406 146.691 154.312C145.64 151.899 141.739 147.851 137.542 148.799C133.109 149.8 132.904 155.246 134.902 159.308C135.511 160.545 136.264 160.834 137.035 160.488ZM189.333 174.273L189.403 174.247C190.499 173.827 192.244 173.159 193.772 174.228C195.332 175.322 197.184 178.394 198.353 181.25C200.076 185.459 200.256 189.294 198.861 192.047C198.038 193.668 196.723 194.797 195.056 195.306C193.629 195.744 191.326 195.678 188.458 192.879C186.661 191.126 185.019 188.628 183.954 186.027C182.668 182.888 181.343 179.526 182.814 177.882C183.643 176.953 184.301 176.548 185.897 175.773C187.209 175.137 188.241 174.691 189.333 174.273ZM190.68 171.019L181.553 175.117C180.782 175.464 180.029 175.175 179.42 173.937C177.422 169.876 177.627 164.429 182.059 163.428C186.257 162.48 190.158 166.529 191.209 168.942C191.687 170.036 191.517 170.644 190.68 171.019ZM175.093 215.247L175.023 215.273C173.931 215.691 172.899 216.137 171.587 216.773C169.991 217.548 169.333 217.953 168.504 218.882C167.033 220.526 168.358 223.888 169.644 227.027C170.709 229.628 172.351 232.126 174.148 233.879C177.016 236.678 179.319 236.744 180.746 236.306C182.413 235.797 183.728 234.668 184.551 233.047C185.946 230.294 185.766 226.459 184.043 222.25C182.874 219.394 181.022 216.322 179.462 215.228C177.934 214.159 176.189 214.827 175.093 215.247ZM167.243 216.117L176.37 212.019C177.207 211.644 177.377 211.036 176.899 209.942C175.848 207.529 171.947 203.48 167.749 204.428C163.317 205.429 163.112 210.876 165.11 214.937C165.719 216.175 166.472 216.464 167.243 216.117ZM216.93 233.273L217.001 233.247C218.097 232.827 219.842 232.159 221.369 233.228C222.93 234.322 224.781 237.394 225.95 240.25C227.674 244.459 227.854 248.294 226.459 251.047C225.636 252.668 224.321 253.797 222.654 254.306C221.226 254.744 218.924 254.678 216.055 251.879C214.258 250.126 212.617 247.628 211.552 245.027C210.266 241.888 208.941 238.526 210.412 236.882C211.241 235.953 211.898 235.548 213.494 234.773C214.807 234.137 215.839 233.691 216.93 233.273ZM218.278 230.019L209.15 234.117C208.379 234.464 207.627 234.175 207.018 232.937C205.019 228.876 205.225 223.429 209.657 222.428C213.854 221.48 217.756 225.529 218.806 227.942C219.284 229.036 219.114 229.644 218.278 230.019ZM202.584 287.637L202.531 287.69C201.722 288.52 200.98 289.351 200.065 290.47C198.954 291.832 198.533 292.471 198.182 293.656C197.56 295.754 200.212 298.253 202.734 300.567C204.823 302.483 207.39 304.069 209.776 304.915C213.584 306.265 215.7 305.373 216.804 304.386C218.095 303.235 218.8 301.669 218.845 299.859C218.92 296.787 217.101 293.386 213.72 290.284C211.427 288.179 208.422 286.16 206.535 285.814C204.689 285.476 203.396 286.803 202.584 287.637ZM195.845 291.672L202.347 284.184C202.943 283.498 202.834 282.876 201.929 282.082C199.934 280.33 194.649 278.274 191.255 280.869C187.67 283.608 189.837 288.629 193.403 291.484C194.489 292.354 195.296 292.305 195.845 291.672ZM250.631 284.843L250.683 284.79C251.496 283.956 252.788 282.629 254.635 282.967C256.521 283.313 259.527 285.332 261.82 287.437C265.2 290.539 267.02 293.94 266.944 297.012C266.899 298.822 266.195 300.389 264.904 301.539C263.799 302.526 261.684 303.418 257.875 302.068C255.489 301.222 252.922 299.637 250.834 297.72C248.312 295.406 245.659 292.907 246.282 290.809C246.633 289.624 247.053 288.985 248.165 287.623C249.08 286.503 249.822 285.673 250.631 284.843ZM250.446 281.336L243.945 288.825C243.395 289.458 242.589 289.507 241.502 288.637C237.936 285.783 235.77 280.762 239.354 278.021C242.749 275.427 248.034 277.483 250.028 279.236C250.934 280.029 251.043 280.651 250.446 281.336ZM310.321 323.425L310.289 323.492C309.801 324.535 309.375 325.556 308.883 326.906C308.285 328.548 308.1 329.286 308.162 330.518C308.272 332.7 311.611 334.218 314.766 335.602C317.379 336.749 320.333 337.431 322.871 337.471C326.921 337.535 328.624 336.017 329.34 334.732C330.178 333.233 330.323 331.527 329.763 329.802C328.812 326.873 325.96 324.237 321.732 322.381C318.863 321.121 315.349 320.169 313.451 320.443C311.592 320.711 310.811 322.378 310.321 323.425ZM305.292 329.387L308.947 320.235C309.283 319.397 308.974 318.844 307.853 318.382C305.384 317.36 299.703 317.099 297.357 320.634C294.879 324.366 298.599 328.424 302.92 329.987C304.237 330.463 304.983 330.16 305.292 329.387ZM339.564 358.861L339.589 358.791C339.965 357.7 340.563 355.962 342.383 355.505C344.242 355.039 347.838 355.626 350.825 356.586C355.229 357.999 358.347 360.33 359.606 363.145C360.347 364.804 360.385 366.515 359.712 368.091C359.137 369.442 357.606 371.125 353.571 371.477C351.043 371.696 348.031 371.321 345.31 370.447C342.025 369.393 338.542 368.225 338.2 366.066C338.006 364.848 338.111 364.095 338.53 362.4C338.876 361.007 339.19 359.948 339.564 358.861ZM337.882 355.759L335.224 365.234C335 366.035 334.29 366.413 332.93 366.074C328.465 364.961 324.332 361.306 326.397 357.341C328.353 353.586 334.031 353.265 336.596 354.028C337.76 354.373 338.126 354.891 337.882 355.759ZM390.241 339.457L390.231 339.531C390.075 340.667 389.973 341.766 389.906 343.198C389.825 344.939 389.869 345.698 390.296 346.857C391.054 348.913 394.701 349.41 398.131 349.832C400.973 350.181 404.002 349.987 406.44 349.3C410.333 348.202 411.508 346.264 411.809 344.83C412.162 343.157 411.791 341.484 410.74 339.994C408.955 337.465 405.44 335.76 400.841 335.195C397.721 334.811 394.077 334.905 392.343 335.71C390.646 336.498 390.397 338.315 390.241 339.457ZM387.214 346.597L387.975 336.8C388.045 335.902 387.584 335.462 386.374 335.34C383.708 335.069 378.197 336.445 377.009 340.496C375.756 344.774 380.525 347.59 385.125 347.85C386.526 347.928 387.15 347.425 387.214 346.597ZM441.009 359.096L441.019 359.022C441.175 357.88 441.424 356.063 443.121 355.275C444.855 354.47 448.499 354.375 451.619 354.76C456.218 355.325 459.733 357.03 461.518 359.559C462.569 361.049 462.94 362.722 462.587 364.395C462.286 365.829 461.111 367.767 457.218 368.865C454.78 369.552 451.751 369.746 448.909 369.396C445.479 368.975 441.832 368.478 441.075 366.422C440.647 365.263 440.603 364.504 440.684 362.763C440.751 361.331 440.853 360.232 441.009 359.096ZM438.753 356.365L437.992 366.162C437.928 366.99 437.305 367.493 435.903 367.415C431.303 367.155 426.534 364.339 427.788 360.061C428.975 356.01 434.486 354.634 437.153 354.905C438.362 355.027 438.823 355.467 438.753 356.365ZM487.015 328.022L487.005 328.096C486.85 329.232 486.748 330.331 486.68 331.763C486.599 333.504 486.643 334.263 487.071 335.422C487.828 337.478 491.475 337.975 494.905 338.396C497.747 338.746 500.776 338.552 503.215 337.865C507.107 336.767 508.282 334.829 508.583 333.395C508.937 331.722 508.565 330.049 507.514 328.559C505.73 326.03 502.214 324.325 497.616 323.76C494.496 323.375 490.851 323.47 489.117 324.275C487.42 325.063 487.172 326.88 487.015 328.022ZM483.988 335.162L484.749 325.365C484.819 324.467 484.358 324.027 483.149 323.905C480.482 323.634 474.971 325.01 473.784 329.061C472.53 333.339 477.299 336.155 481.899 336.415C483.301 336.493 483.924 335.99 483.988 335.162ZM512.559 362.096L512.569 362.022C512.725 360.88 512.974 359.063 514.671 358.275C516.405 357.47 520.049 357.375 523.169 357.76C527.768 358.325 531.283 360.03 533.068 362.559C534.119 364.049 534.49 365.722 534.137 367.395C533.836 368.829 532.661 370.767 528.768 371.865C526.329 372.552 523.3 372.746 520.459 372.396C517.029 371.975 513.381 371.478 512.624 369.422C512.196 368.263 512.153 367.504 512.234 365.763C512.301 364.331 512.403 363.232 512.559 362.096ZM510.302 359.365L509.542 369.162C509.477 369.99 508.854 370.493 507.453 370.415C502.853 370.155 498.083 367.339 499.337 363.061C500.525 359.01 506.036 357.634 508.702 357.905C509.912 358.027 510.373 358.467 510.302 359.365ZM23.747 42.4218L23.7252 42.4931C23.3898 43.5918 23.1134 44.6611 22.8179 46.0654C22.4595 47.7729 22.3812 48.5288 22.6183 49.7397C23.0375 51.8862 26.5603 52.9345 29.8809 53.8759C32.6317 54.6562 35.6543 54.9282 38.173 54.6225C42.1933 54.1342 43.6638 52.3994 44.1901 51.0297C44.8066 49.4311 44.7072 47.7221 43.9075 46.0898C42.5491 43.3188 39.3496 41.0966 34.8982 39.8344C31.8782 38.9775 28.2634 38.5131 26.4221 39.0429C24.62 39.5615 24.0838 41.3183 23.747 42.4218ZM19.6152 49.0102L21.9333 39.4506C22.1465 38.5747 21.7614 38.0693 20.5862 37.7641C17.996 37.0888 12.3327 37.604 10.5121 41.4233C8.58968 45.4565 12.8501 48.9682 17.3519 49.9282C18.7236 50.2202 19.4196 49.8183 19.6152 49.0102ZM262.28 339.425L262.249 339.492C261.76 340.535 261.334 341.556 260.842 342.906C260.244 344.548 260.059 345.286 260.122 346.518C260.231 348.7 263.571 350.218 266.725 351.602C269.338 352.749 272.293 353.431 274.83 353.471C278.881 353.535 280.584 352.017 281.3 350.732C282.138 349.233 282.282 347.527 281.723 345.802C280.772 342.873 277.919 340.237 273.691 338.381C270.822 337.121 267.309 336.169 265.41 336.443C263.552 336.711 262.771 338.378 262.28 339.425ZM257.251 345.387L260.907 336.235C261.243 335.397 260.933 334.844 259.813 334.382C257.344 333.36 251.662 333.099 249.316 336.634C246.839 340.366 250.558 344.424 254.88 345.987C256.196 346.463 256.943 346.16 257.251 345.387ZM629.922 353.7L629.977 353.649C630.839 352.859 632.212 351.602 634.014 352.074C635.855 352.556 638.684 354.814 640.803 357.109C643.926 360.493 645.485 364.071 645.193 367.184C645.021 369.017 644.214 370.558 642.856 371.636C641.694 372.561 639.539 373.32 635.868 371.685C633.568 370.66 631.142 368.873 629.212 366.783C626.882 364.259 624.436 361.539 625.199 359.453C625.63 358.275 626.091 357.656 627.287 356.351C628.27 355.277 629.063 354.487 629.922 353.7ZM629.987 350.128L623.028 357.277C622.441 357.881 621.639 357.875 620.626 356.917C617.302 353.772 615.515 348.525 619.253 345.994C622.793 343.596 627.874 346.05 629.722 347.967C630.562 348.835 630.625 349.474 629.987 350.128ZM626.936 392.206L626.992 392.155C627.854 391.365 629.226 390.108 631.028 390.579C632.869 391.061 635.698 393.319 637.817 395.615C640.941 398.998 642.5 402.576 642.208 405.688C642.036 407.522 641.228 409.063 639.87 410.142C638.708 411.066 636.553 411.825 632.883 410.19C630.583 409.165 628.157 407.378 626.226 405.288C623.896 402.765 621.45 400.044 622.214 397.957C622.644 396.78 623.105 396.161 624.301 394.855C625.285 393.783 626.078 392.992 626.936 392.206ZM627.001 388.633L620.043 395.782C619.455 396.386 618.654 396.38 617.641 395.422C614.317 392.277 612.529 387.031 616.267 384.498C619.807 382.101 624.888 384.555 626.737 386.472C627.576 387.341 627.64 387.978 627.001 388.633ZM673.6 392.155L673.544 392.206C672.686 392.992 671.893 393.783 670.909 394.855C669.714 396.161 669.253 396.78 668.822 397.957C668.058 400.044 670.505 402.765 672.835 405.288C674.765 407.378 677.191 409.165 679.491 410.19C683.162 411.825 685.316 411.066 686.478 410.142C687.837 409.063 688.644 407.522 688.816 405.688C689.108 402.576 687.549 398.998 684.425 395.615C682.307 393.319 679.477 391.061 677.636 390.579C675.834 390.108 674.462 391.365 673.6 392.155ZM666.651 395.782L673.61 388.633C674.248 387.978 674.184 387.341 673.345 386.472C671.497 384.555 666.416 382.101 662.876 384.498C659.137 387.031 660.925 392.277 664.249 395.422C665.262 396.38 666.063 396.386 666.651 395.782ZM667.465 434.936L667.521 434.886C668.383 434.096 669.755 432.839 671.557 433.31C673.398 433.792 676.227 436.05 678.346 438.346C681.47 441.728 683.029 445.307 682.737 448.419C682.564 450.253 681.757 451.794 680.399 452.873C679.237 453.797 677.082 454.556 673.412 452.921C671.112 451.896 668.686 450.109 666.755 448.019C664.425 445.496 661.979 442.775 662.743 440.688C663.173 439.511 663.634 438.892 664.83 437.586C665.814 436.514 666.607 435.723 667.465 434.936ZM667.53 431.364L660.572 438.513C659.984 439.117 659.183 439.111 658.17 438.153C654.846 435.008 653.058 429.762 656.796 427.229C660.336 424.832 665.417 427.286 667.266 429.203C668.105 430.072 668.169 430.709 667.53 431.364ZM718.182 444.042L718.126 444.093C717.268 444.879 716.475 445.67 715.491 446.743C714.296 448.048 713.835 448.667 713.404 449.845C712.64 451.932 715.086 454.652 717.417 457.175C719.347 459.266 721.773 461.053 724.073 462.078C727.744 463.712 729.898 462.954 731.06 462.029C732.418 460.951 733.226 459.41 733.398 457.576C733.69 454.463 732.131 450.885 729.007 447.502C726.888 445.207 724.059 442.948 722.218 442.467C720.416 441.995 719.044 443.252 718.182 444.042ZM711.233 447.669L718.192 440.521C718.83 439.866 718.766 439.228 717.927 438.36C716.079 436.442 710.998 433.988 707.458 436.386C703.719 438.918 705.507 444.165 708.831 447.31C709.844 448.268 710.645 448.274 711.233 447.669ZM708.773 482.459L708.842 482.432C709.929 482.005 711.659 481.325 713.173 482.414C714.72 483.526 716.555 486.652 717.714 489.558C719.423 493.84 719.601 497.742 718.218 500.543C717.402 502.192 716.099 503.341 714.446 503.859C713.031 504.304 710.749 504.237 707.905 501.39C706.124 499.605 704.497 497.064 703.441 494.418C702.166 491.224 700.853 487.804 702.311 486.131C703.133 485.186 703.784 484.774 705.367 483.985C706.668 483.338 707.69 482.885 708.773 482.459ZM710.108 479.148L701.061 483.318C700.296 483.671 699.55 483.377 698.947 482.118C696.965 477.985 697.169 472.444 701.563 471.426C705.723 470.461 709.591 474.581 710.632 477.036C711.106 478.148 710.938 478.767 710.108 479.148ZM752.972 497.316L752.902 497.344C751.82 497.769 750.797 498.222 749.496 498.87C747.914 499.658 747.262 500.07 746.44 501.015C744.982 502.688 746.295 506.108 747.57 509.302C748.626 511.948 750.253 514.49 752.035 516.274C754.878 519.121 757.161 519.188 758.575 518.743C760.228 518.225 761.532 517.077 762.347 515.427C763.73 512.626 763.552 508.725 761.843 504.442C760.685 501.537 758.849 498.411 757.302 497.298C755.788 496.209 754.059 496.89 752.972 497.316ZM745.19 498.203L754.238 494.033C755.067 493.651 755.235 493.033 754.762 491.92C753.72 489.465 749.853 485.346 745.692 486.31C741.298 487.329 741.095 492.87 743.076 497.002C743.68 498.261 744.426 498.555 745.19 498.203ZM738.717 539.058L738.787 539.03C739.874 538.603 741.603 537.923 743.117 539.012C744.664 540.124 746.499 543.25 747.658 546.156C749.367 550.438 749.545 554.34 748.162 557.141C747.347 558.79 746.043 559.939 744.39 560.457C742.976 560.902 740.693 560.835 737.85 557.988C736.068 556.204 734.441 553.662 733.385 551.016C732.11 547.822 730.797 544.402 732.255 542.728C733.077 541.784 733.729 541.372 735.311 540.583C736.612 539.936 737.635 539.483 738.717 539.058ZM740.052 535.746L731.005 539.916C730.24 540.269 729.495 539.975 728.891 538.716C726.91 534.583 727.113 529.042 731.507 528.024C735.668 527.059 739.535 531.179 740.577 533.633C741.05 534.746 740.882 535.365 740.052 535.746ZM780.329 557.343L780.259 557.371C779.177 557.796 778.154 558.249 776.853 558.896C775.271 559.685 774.619 560.097 773.797 561.042C772.339 562.715 773.652 566.135 774.927 569.329C775.983 571.975 777.61 574.517 779.392 576.301C782.235 579.148 784.518 579.215 785.932 578.77C787.585 578.252 788.889 577.103 789.704 575.454C791.087 572.653 790.909 568.751 789.2 564.469C788.042 561.563 786.206 558.437 784.659 557.325C783.145 556.236 781.416 556.916 780.329 557.343ZM772.547 558.229L781.595 554.06C782.424 553.678 782.592 553.06 782.119 551.947C781.077 549.492 777.21 545.373 773.049 546.337C768.655 547.355 768.452 552.896 770.433 557.029C771.037 558.288 771.783 558.582 772.547 558.229ZM765.986 612.735L766.037 612.68C766.843 611.832 768.124 610.482 769.954 610.826C771.825 611.178 774.804 613.232 777.077 615.373C780.428 618.53 782.231 621.99 782.157 625.115C782.112 626.957 781.414 628.551 780.134 629.721C779.039 630.725 776.942 631.633 773.167 630.259C770.802 629.398 768.257 627.786 766.186 625.835C763.687 623.481 761.057 620.939 761.674 618.804C762.022 617.599 762.439 616.949 763.541 615.563C764.448 614.424 765.184 613.58 765.986 612.735ZM765.802 609.167L759.357 616.786C758.813 617.43 758.013 617.479 756.936 616.595C753.402 613.69 751.254 608.582 754.807 605.794C758.172 603.154 763.411 605.247 765.388 607.03C766.286 607.837 766.394 608.469 765.802 609.167ZM813.717 609.784L813.666 609.838C812.864 610.683 812.128 611.527 811.221 612.666C810.119 614.053 809.702 614.703 809.355 615.907C808.737 618.042 811.367 620.585 813.866 622.939C815.937 624.889 818.482 626.502 820.847 627.363C824.622 628.736 826.719 627.829 827.814 626.825C829.094 625.654 829.792 624.06 829.837 622.219C829.912 619.093 828.108 615.633 824.757 612.477C822.484 610.335 819.505 608.281 817.635 607.93C815.804 607.585 814.523 608.936 813.717 609.784ZM807.038 613.889L813.483 606.27C814.074 605.573 813.966 604.941 813.068 604.133C811.091 602.35 805.852 600.258 802.487 602.898C798.934 605.686 801.082 610.794 804.617 613.698C805.694 614.583 806.493 614.533 807.038 613.889ZM872.803 649.16L872.835 649.091C873.321 648.026 874.095 646.331 875.937 646.058C877.819 645.779 881.302 646.748 884.146 648.029C888.338 649.918 891.165 652.6 892.108 655.58C892.663 657.335 892.519 659.07 891.689 660.596C890.979 661.903 889.291 663.447 885.275 663.382C882.76 663.341 879.831 662.648 877.241 661.481C874.114 660.073 870.804 658.528 870.695 656.308C870.633 655.055 870.816 654.304 871.409 652.633C871.897 651.26 872.319 650.221 872.803 649.16ZM871.474 645.846L867.85 655.157C867.544 655.944 866.804 656.252 865.499 655.768C861.215 654.177 857.528 650.049 859.984 646.252C862.31 642.656 867.942 642.921 870.389 643.961C871.5 644.431 871.806 644.993 871.474 645.846ZM901.847 685.073L901.823 685.144C901.452 686.25 901.14 687.328 900.798 688.745C900.383 690.469 900.278 691.235 900.47 692.475C900.81 694.671 904.263 695.86 907.519 696.933C910.216 697.821 913.201 698.203 915.707 697.979C919.707 697.623 921.226 695.91 921.795 694.536C922.463 692.931 922.425 691.19 921.69 689.503C920.442 686.638 917.351 684.268 912.986 682.83C910.024 681.853 906.46 681.255 904.617 681.73C902.813 682.195 902.22 683.962 901.847 685.073ZM897.521 691.628L900.156 681.989C900.398 681.105 900.034 680.579 898.881 680.227C896.339 679.451 890.71 679.777 888.771 683.598C886.724 687.632 890.821 691.351 895.247 692.483C896.595 692.828 897.299 692.443 897.521 691.628ZM952.048 665.477L952.058 665.403C952.213 664.241 952.459 662.393 954.141 661.591C955.86 660.771 959.473 660.675 962.566 661.066C967.124 661.642 970.609 663.376 972.378 665.949C973.42 667.465 973.788 669.166 973.438 670.869C973.139 672.328 971.975 674.299 968.116 675.416C965.698 676.116 962.696 676.313 959.879 675.957C956.479 675.528 952.863 675.023 952.113 672.932C951.689 671.752 951.645 670.98 951.726 669.208C951.792 667.751 951.894 666.634 952.048 665.477ZM949.811 662.699L949.057 672.666C948.993 673.509 948.376 674.021 946.986 673.941C942.427 673.678 937.699 670.812 938.942 666.46C940.119 662.338 945.582 660.939 948.225 661.214C949.424 661.338 949.881 661.786 949.811 662.699ZM1002.39 685.308L1002.38 685.383C1002.23 686.54 1002.13 687.657 1002.06 689.114C1001.98 690.886 1002.02 691.658 1002.45 692.837C1003.2 694.929 1006.81 695.434 1010.21 695.863C1013.03 696.218 1016.03 696.021 1018.45 695.322C1022.31 694.205 1023.47 692.233 1023.77 690.774C1024.12 689.072 1023.75 687.371 1022.71 685.854C1020.94 683.282 1017.46 681.547 1012.9 680.972C1009.81 680.581 1006.2 680.677 1004.48 681.496C1002.79 682.298 1002.55 684.146 1002.39 685.308ZM999.392 692.572L1000.15 682.604C1000.22 681.691 999.759 681.243 998.56 681.12C995.917 680.844 990.454 682.244 989.277 686.365C988.034 690.718 992.762 693.583 997.322 693.847C998.711 693.927 999.329 693.414 999.392 692.572ZM1047.98 653.843L1047.99 653.769C1048.14 652.607 1048.39 650.758 1050.07 649.957C1051.79 649.137 1055.4 649.041 1058.5 649.432C1063.05 650.007 1066.54 651.742 1068.31 654.315C1069.35 655.831 1069.72 657.533 1069.37 659.235C1069.07 660.693 1067.9 662.665 1064.05 663.782C1061.63 664.482 1058.63 664.679 1055.81 664.323C1052.41 663.894 1048.79 663.389 1048.04 661.298C1047.62 660.118 1047.58 659.346 1047.66 657.574C1047.72 656.118 1047.82 655 1047.98 653.843ZM1045.74 651.065L1044.99 661.033C1044.92 661.874 1044.31 662.387 1042.92 662.307C1038.36 662.043 1033.63 659.178 1034.87 654.826C1036.05 650.704 1041.51 649.305 1044.16 649.58C1045.35 649.704 1045.81 650.151 1045.74 651.065ZM1073.32 688.36L1073.31 688.435C1073.15 689.592 1073.05 690.709 1072.99 692.166C1072.91 693.938 1072.95 694.71 1073.37 695.89C1074.12 697.981 1077.74 698.486 1081.14 698.915C1083.96 699.27 1086.96 699.074 1089.38 698.374C1093.24 697.257 1094.4 695.285 1094.7 693.827C1095.05 692.124 1094.68 690.423 1093.64 688.907C1091.87 686.334 1088.38 684.599 1083.83 684.024C1080.73 683.633 1077.12 683.729 1075.4 684.548C1073.72 685.35 1073.47 687.199 1073.32 688.36ZM1070.32 695.624L1071.07 685.657C1071.14 684.743 1070.68 684.295 1069.49 684.172C1066.84 683.896 1061.38 685.296 1060.2 689.417C1058.96 693.77 1063.69 696.635 1068.25 696.899C1069.64 696.979 1070.25 696.466 1070.32 695.624ZM575.567 370.392L575.589 370.32C575.923 369.197 576.454 367.41 578.241 366.882C580.066 366.343 583.649 366.815 586.643 367.687C591.055 368.971 594.227 371.232 595.574 374.051C596.366 375.712 596.465 377.451 595.854 379.077C595.332 380.471 593.874 382.235 589.889 382.732C587.392 383.043 584.396 382.767 581.669 381.973C578.378 381.015 574.886 379.948 574.47 377.765C574.235 376.533 574.313 375.764 574.668 374.026C574.961 372.598 575.235 371.51 575.567 370.392ZM573.791 367.296L571.493 377.022C571.299 377.845 570.609 378.253 569.25 377.956C564.787 376.98 560.564 373.407 562.469 369.304C564.274 365.417 569.888 364.894 572.456 365.581C573.621 365.891 574.002 366.405 573.791 367.296ZM825.213 665.37L825.182 665.438C824.698 666.499 824.275 667.538 823.788 668.912C823.195 670.582 823.011 671.333 823.073 672.586C823.182 674.807 826.492 676.351 829.619 677.76C832.21 678.927 835.138 679.62 837.654 679.661C841.669 679.725 843.357 678.181 844.067 676.874C844.898 675.349 845.041 673.613 844.486 671.858C843.543 668.878 840.716 666.196 836.524 664.308C833.681 663.026 830.198 662.057 828.316 662.336C826.474 662.609 825.699 664.305 825.213 665.37ZM820.228 671.436L823.852 662.125C824.185 661.272 823.878 660.709 822.767 660.239C820.32 659.2 814.688 658.935 812.362 662.53C809.906 666.328 813.593 670.456 817.877 672.046C819.182 672.531 819.922 672.222 820.228 671.436ZM558.138 326.681L558.116 326.752C557.788 327.852 557.518 328.921 557.229 330.325C556.878 332.032 556.801 332.788 557.033 333.999C557.443 336.145 560.89 337.194 564.139 338.135C566.83 338.915 569.787 339.187 572.251 338.882C576.184 338.394 577.623 336.659 578.138 335.289C578.741 333.69 578.644 331.981 577.861 330.349C576.532 327.579 573.402 325.356 569.047 324.094C566.093 323.237 562.556 322.772 560.755 323.302C558.992 323.821 558.467 325.578 558.138 326.681ZM554.095 333.27L556.363 323.71C556.572 322.834 556.195 322.329 555.045 322.023C552.511 321.348 546.97 321.863 545.189 325.683C543.309 329.716 547.477 333.227 551.881 334.187C553.223 334.479 553.904 334.078 554.095 333.27Z" fill="white" fill-opacity="0.25"/>
</svg>
