<svg width="526" height="384" viewBox="0 0 526 384" fill="none" xmlns="http://www.w3.org/2000/svg">
<g clip-path="url(#clip0_122_1355)">
<path d="M65.2425 39.3739C66.0896 38.6022 67.464 37.3021 69.281 37.7756C71.0981 38.2491 73.8903 40.4686 75.9814 42.725C79.0642 46.05 80.6028 49.567 80.3149 52.6264C80.1448 54.4286 79.3481 55.9435 78.0077 57.0032C76.8609 57.9121 74.7343 58.6579 71.1113 57.051C68.8416 56.0439 66.447 54.2875 64.542 52.2328C62.2423 49.7526 59.828 47.0788 60.5819 45.0279C61.0068 43.8704 61.4618 43.2618 62.6419 41.9787C63.6127 40.9242 64.3952 40.1469 65.2425 39.3739ZM65.3069 35.863L58.4392 42.8895C57.859 43.4833 57.0683 43.4773 56.0686 42.5356C52.7876 39.4445 51.0234 34.2878 54.7129 31.7992C58.2069 29.4425 63.2214 31.8546 65.0456 33.7389C65.874 34.5925 65.9367 35.2196 65.3069 35.863Z" fill="#FE5811" fill-opacity="0.2"/>
</g>
<g clip-path="url(#clip1_122_1355)">
<path d="M62.296 77.2205C63.1431 76.4487 64.5174 75.1486 66.3345 75.6221C68.1515 76.0957 70.9437 78.3151 73.0349 80.5715C76.1176 83.8966 77.6563 87.4135 77.3684 90.473C77.1983 92.2752 76.4015 93.79 75.0612 94.8497C73.9144 95.7587 71.7877 96.5045 68.1648 94.8976C65.8951 93.8905 63.5005 92.134 61.5955 90.0794C59.2957 87.5991 56.8815 84.9254 57.6353 82.8745C58.0602 81.717 58.5153 81.1084 59.6954 79.8253C60.6661 78.7707 61.4487 77.9935 62.296 77.2205ZM62.3604 73.7095L55.4926 80.736C54.9125 81.3298 54.1218 81.3238 53.122 80.3822C49.8411 77.291 48.0769 72.1343 51.7664 69.6457C55.2603 67.289 60.2749 69.7012 62.0991 71.5854C62.9275 72.4391 62.9902 73.0662 62.3604 73.7095Z" fill="#FE5811" fill-opacity="0.2"/>
</g>
<g clip-path="url(#clip2_122_1355)">
<path d="M108.296 77.2205C109.143 76.4487 110.517 75.1486 112.334 75.6221C114.152 76.0957 116.944 78.3151 119.035 80.5715C122.118 83.8966 123.656 87.4135 123.368 90.473C123.198 92.2752 122.402 93.79 121.061 94.8497C119.914 95.7587 117.788 96.5045 114.165 94.8976C111.895 93.8905 109.5 92.134 107.595 90.0794C105.296 87.5991 102.881 84.9254 103.635 82.8745C104.06 81.717 104.515 81.1084 105.695 79.8253C106.666 78.7707 107.449 77.9935 108.296 77.2205ZM108.36 73.7095L101.493 80.736C100.912 81.3298 100.122 81.3238 99.122 80.3822C95.8411 77.291 94.0769 72.1343 97.7664 69.6457C101.26 67.289 106.275 69.7012 108.099 71.5854C108.928 72.4391 108.99 73.0662 108.36 73.7095Z" fill="#FE5811" fill-opacity="0.2"/>
</g>
<g clip-path="url(#clip3_122_1355)">
<path d="M102.296 119.22C103.143 118.449 104.517 117.149 106.334 117.622C108.152 118.096 110.944 120.315 113.035 122.572C116.118 125.897 117.656 129.414 117.368 132.473C117.198 134.275 116.402 135.79 115.061 136.85C113.914 137.759 111.788 138.504 108.165 136.898C105.895 135.89 103.5 134.134 101.595 132.079C99.2957 129.599 96.8815 126.925 97.6353 124.874C98.0602 123.717 98.5153 123.108 99.6954 121.825C100.666 120.771 101.449 119.993 102.296 119.22ZM102.36 115.71L95.4926 122.736C94.9125 123.33 94.1218 123.324 93.122 122.382C89.8411 119.291 88.0769 114.134 91.7664 111.646C95.2603 109.289 100.275 111.701 102.099 113.585C102.928 114.439 102.99 115.066 102.36 115.71Z" fill="#FE5811" fill-opacity="0.2"/>
</g>
<g clip-path="url(#clip4_122_1355)">
<path d="M152.296 128.22C153.143 127.449 154.517 126.149 156.334 126.622C158.152 127.096 160.944 129.315 163.035 131.572C166.118 134.897 167.656 138.414 167.368 141.473C167.198 143.275 166.402 144.79 165.061 145.85C163.914 146.759 161.788 147.504 158.165 145.898C155.895 144.89 153.5 143.134 151.595 141.079C149.296 138.599 146.881 135.925 147.635 133.874C148.06 132.717 148.515 132.108 149.695 130.825C150.666 129.771 151.449 128.993 152.296 128.22ZM152.36 124.71L145.493 131.736C144.912 132.33 144.122 132.324 143.122 131.382C139.841 128.291 138.077 123.134 141.766 120.646C145.26 118.289 150.275 120.701 152.099 122.585C152.928 123.439 152.99 124.066 152.36 124.71Z" fill="#FE5811" fill-opacity="0.2"/>
</g>
<g clip-path="url(#clip5_122_1355)">
<path d="M143.064 165.931C144.132 165.514 145.881 164.793 147.407 165.886C148.934 166.979 150.745 170.052 151.889 172.908C153.575 177.117 153.751 180.952 152.386 183.705C151.582 185.326 150.295 186.455 148.664 186.964C147.267 187.401 145.015 187.336 142.208 184.537C140.45 182.784 138.844 180.286 137.802 177.685C136.544 174.545 135.248 171.184 136.687 169.539C137.498 168.611 138.141 168.206 139.703 167.431C140.987 166.794 141.996 166.349 143.064 165.931ZM144.383 162.676L135.453 166.775C134.698 167.121 133.962 166.832 133.367 165.595C131.411 161.533 131.612 156.087 135.949 155.086C140.055 154.138 143.872 158.187 144.9 160.6C145.367 161.693 145.201 162.301 144.383 162.676Z" fill="#FE5811" fill-opacity="0.2"/>
</g>
<g clip-path="url(#clip6_122_1355)">
<path d="M186.618 180.561C187.685 180.144 189.434 179.423 190.961 180.516C192.487 181.609 194.299 184.682 195.442 187.538C197.129 191.747 197.305 195.581 195.94 198.334C195.135 199.956 193.848 201.085 192.217 201.594C190.821 202.031 188.568 201.965 185.762 199.167C184.004 197.413 182.398 194.915 181.355 192.314C180.097 189.175 178.802 185.813 180.24 184.169C181.052 183.241 181.695 182.835 183.256 182.06C184.541 181.424 185.55 180.979 186.618 180.561ZM187.936 177.306L179.006 181.405C178.252 181.751 177.516 181.462 176.92 180.225C174.965 176.163 175.166 170.717 179.502 169.716C183.608 168.768 187.426 172.817 188.453 175.229C188.921 176.323 188.755 176.931 187.936 177.306Z" fill="#FE5811" fill-opacity="0.2"/>
</g>
<g clip-path="url(#clip7_122_1355)">
<path d="M172.618 221.561C173.685 221.144 175.434 220.423 176.961 221.516C178.487 222.609 180.299 225.682 181.442 228.538C183.129 232.747 183.305 236.581 181.94 239.334C181.135 240.956 179.848 242.085 178.217 242.594C176.821 243.031 174.568 242.965 171.762 240.167C170.004 238.413 168.398 235.915 167.355 233.314C166.097 230.175 164.802 226.813 166.24 225.169C167.052 224.241 167.695 223.835 169.256 223.06C170.541 222.424 171.55 221.979 172.618 221.561ZM173.936 218.306L165.006 222.405C164.252 222.751 163.516 222.462 162.92 221.225C160.965 217.163 161.166 211.717 165.502 210.716C169.608 209.768 173.426 213.817 174.453 216.229C174.921 217.323 174.755 217.931 173.936 218.306Z" fill="#FE5811" fill-opacity="0.2"/>
</g>
<g clip-path="url(#clip8_122_1355)">
<path d="M213.618 239.561C214.685 239.144 216.434 238.423 217.961 239.516C219.487 240.609 221.299 243.682 222.442 246.538C224.129 250.747 224.305 254.581 222.94 257.334C222.135 258.956 220.848 260.085 219.217 260.594C217.821 261.031 215.568 260.965 212.762 258.167C211.004 256.413 209.398 253.915 208.355 251.314C207.097 248.175 205.802 244.813 207.24 243.169C208.052 242.241 208.695 241.835 210.256 241.06C211.541 240.424 212.55 239.979 213.618 239.561ZM214.936 236.306L206.006 240.405C205.252 240.751 204.516 240.462 203.92 239.225C201.965 235.163 202.166 229.717 206.502 228.716C210.608 227.768 214.426 231.817 215.453 234.229C215.921 235.323 215.755 235.931 214.936 236.306Z" fill="#FE5811" fill-opacity="0.2"/>
</g>
<g clip-path="url(#clip9_122_1355)">
<path d="M199.531 293.977C200.322 293.149 201.602 291.756 203.448 292.101C205.293 292.447 208.234 294.466 210.477 296.571C213.784 299.673 215.565 303.074 215.491 306.146C215.447 307.956 214.758 309.523 213.494 310.673C212.414 311.66 210.344 312.552 206.618 311.202C204.284 310.356 201.773 308.771 199.729 306.854C197.262 304.54 194.667 302.041 195.276 299.943C195.619 298.759 196.03 298.12 197.118 296.757C198.013 295.638 198.739 294.808 199.531 293.977ZM199.35 290.471L192.989 297.959C192.452 298.592 191.663 298.641 190.6 297.771C187.111 294.917 184.991 289.896 188.498 287.156C191.819 284.561 196.99 286.617 198.941 288.37C199.827 289.164 199.933 289.785 199.35 290.471Z" fill="#FE5811" fill-opacity="0.2"/>
</g>
<g clip-path="url(#clip10_122_1355)">
<path d="M246.589 291.13C247.38 290.301 248.66 288.909 250.506 289.254C252.351 289.6 255.292 291.619 257.535 293.724C260.842 296.826 262.622 300.227 262.549 303.299C262.505 305.109 261.816 306.676 260.552 307.826C259.472 308.813 257.402 309.705 253.676 308.355C251.342 307.509 248.83 305.924 246.787 304.007C244.32 301.693 241.725 299.194 242.334 297.096C242.677 295.911 243.088 295.273 244.176 293.91C245.071 292.791 245.797 291.961 246.589 291.13ZM246.408 287.624L240.047 295.112C239.51 295.745 238.72 295.794 237.657 294.924C234.169 292.07 232.049 287.049 235.556 284.309C238.877 281.714 244.048 283.77 245.999 285.523C246.885 286.317 246.991 286.938 246.408 287.624Z" fill="#FE5811" fill-opacity="0.2"/>
</g>
<g clip-path="url(#clip11_122_1355)">
<path d="M304.954 329.78C305.433 328.738 306.19 327.004 308.047 326.73C309.905 326.456 313.342 327.408 316.149 328.668C320.286 330.524 323.076 333.161 324.007 336.089C324.554 337.815 324.413 339.52 323.593 341.02C322.893 342.304 321.226 343.822 317.264 343.758C314.781 343.718 311.89 343.037 309.334 341.89C306.248 340.505 302.981 338.988 302.873 336.805C302.812 335.574 302.993 334.836 303.578 333.193C304.06 331.843 304.477 330.822 304.954 329.78ZM303.642 326.523L300.066 335.674C299.764 336.447 299.033 336.751 297.745 336.274C293.517 334.711 289.878 330.654 292.302 326.921C294.598 323.387 300.156 323.648 302.571 324.669C303.668 325.131 303.97 325.684 303.642 326.523Z" fill="#FE5811" fill-opacity="0.2"/>
</g>
<g clip-path="url(#clip12_122_1355)">
<path d="M333.596 365.149C333.962 364.063 334.534 362.259 336.353 361.793C338.172 361.326 341.69 361.913 344.613 362.873C348.921 364.287 351.972 366.617 353.203 369.432C353.928 371.091 353.966 372.802 353.307 374.379C352.745 375.73 351.246 377.413 347.299 377.764C344.825 377.984 341.879 377.608 339.217 376.735C336.003 375.68 332.595 374.512 332.26 372.353C332.071 371.135 332.174 370.382 332.584 368.688C332.922 367.295 333.229 366.235 333.596 365.149ZM331.95 362.047L329.35 371.522C329.13 372.322 328.436 372.7 327.105 372.361C322.736 371.248 318.693 367.594 320.714 363.628C322.627 359.873 328.182 359.552 330.691 360.315C331.83 360.66 332.189 361.179 331.95 362.047Z" fill="#FE5811" fill-opacity="0.2"/>
</g>
<g clip-path="url(#clip13_122_1355)">
<path d="M383.165 345.818C383.318 344.682 383.535 342.803 385.231 341.997C386.927 341.192 390.493 341.098 393.545 341.482C398.044 342.047 401.483 343.753 403.229 346.281C404.257 347.771 404.621 349.444 404.275 351.117C403.981 352.551 402.831 354.489 399.023 355.587C396.637 356.274 393.674 356.468 390.894 356.118C387.538 355.697 383.97 355.2 383.229 353.145C382.81 351.985 382.768 351.226 382.847 349.485C382.913 348.053 383.013 346.954 383.165 345.818ZM380.957 343.087L380.213 352.884C380.15 353.712 379.54 354.215 378.169 354.137C373.669 353.878 369.003 351.061 370.23 346.783C371.391 342.732 376.783 341.357 379.392 341.628C380.575 341.749 381.026 342.189 380.957 343.087Z" fill="#FE5811" fill-opacity="0.2"/>
</g>
<g clip-path="url(#clip14_122_1355)">
<path d="M432.843 365.383C432.996 364.247 433.213 362.368 434.909 361.562C436.606 360.757 440.171 360.663 443.223 361.047C447.722 361.613 451.162 363.318 452.908 365.846C453.936 367.336 454.299 369.009 453.954 370.682C453.659 372.116 452.51 374.054 448.701 375.152C446.315 375.839 443.352 376.033 440.572 375.683C437.216 375.262 433.648 374.765 432.907 372.71C432.488 371.55 432.446 370.791 432.525 369.05C432.591 367.618 432.691 366.519 432.843 365.383ZM430.635 362.652L429.891 372.449C429.828 373.277 429.219 373.78 427.848 373.702C423.347 373.443 418.681 370.626 419.908 366.348C421.07 362.297 426.461 360.922 429.07 361.193C430.253 361.314 430.704 361.754 430.635 362.652Z" fill="#FE5811" fill-opacity="0.2"/>
</g>
<g clip-path="url(#clip15_122_1355)">
<path d="M477.843 334.383C477.996 333.247 478.213 331.368 479.909 330.562C481.606 329.757 485.171 329.663 488.223 330.047C492.722 330.613 496.162 332.318 497.908 334.846C498.936 336.336 499.299 338.009 498.954 339.682C498.659 341.116 497.51 343.054 493.701 344.152C491.315 344.839 488.352 345.033 485.572 344.683C482.216 344.262 478.648 343.765 477.907 341.71C477.488 340.55 477.446 339.791 477.525 338.05C477.591 336.618 477.691 335.519 477.843 334.383ZM475.635 331.652L474.891 341.449C474.828 342.277 474.219 342.78 472.848 342.702C468.347 342.443 463.681 339.626 464.908 335.348C466.07 331.297 471.461 329.922 474.07 330.193C475.253 330.314 475.704 330.754 475.635 331.652Z" fill="#FE5811" fill-opacity="0.2"/>
</g>
<g clip-path="url(#clip16_122_1355)">
<path d="M502.843 368.383C502.996 367.247 503.213 365.368 504.909 364.562C506.606 363.757 510.171 363.663 513.223 364.047C517.722 364.613 521.162 366.318 522.908 368.846C523.936 370.336 524.299 372.009 523.954 373.682C523.659 375.116 522.51 377.054 518.701 378.152C516.315 378.839 513.352 379.033 510.572 378.683C507.216 378.262 503.648 377.765 502.907 375.71C502.488 374.55 502.446 373.791 502.525 372.05C502.591 370.618 502.691 369.519 502.843 368.383ZM500.635 365.652L499.891 375.449C499.828 376.277 499.219 376.78 497.848 376.702C493.347 376.443 488.681 373.626 489.908 369.348C491.07 365.297 496.461 363.922 499.07 364.193C500.253 364.314 500.704 364.754 500.635 365.652Z" fill="#FE5811" fill-opacity="0.2"/>
</g>
<g clip-path="url(#clip17_122_1355)">
<path d="M24.5975 48.7801C24.9261 47.6823 25.4346 45.8601 27.236 45.3301C29.0374 44.8001 32.5739 45.2645 35.5285 46.1216C39.8834 47.384 43.0137 49.6061 44.3426 52.3769C45.125 54.0093 45.2223 55.7181 44.6192 57.3168C44.1043 58.6865 42.6655 60.4211 38.7324 60.9097C36.2682 61.2154 33.311 60.9432 30.6199 60.1631C27.3712 59.2216 23.9247 58.1732 23.5146 56.0269C23.2826 54.816 23.3592 54.0599 23.7099 52.3523C23.9989 50.9484 24.2694 49.8791 24.5975 48.7801ZM22.8444 45.7375L20.5765 55.2975C20.3851 56.1053 19.7042 56.5074 18.3623 56.2151C13.9579 55.2554 9.78979 51.7438 11.6706 47.7104C13.4517 43.8908 18.9924 43.3757 21.5265 44.0513C22.6762 44.3564 23.053 44.8616 22.8444 45.7375Z" fill="#FE5811" fill-opacity="0.2"/>
</g>
<g clip-path="url(#clip18_122_1355)">
<path d="M15.5975 11.7801C15.9261 10.6823 16.4346 8.86007 18.236 8.3301C20.0374 7.80013 23.5739 8.26451 26.5285 9.12157C30.8834 10.384 34.0137 12.6061 35.3426 15.3769C36.125 17.0093 36.2223 18.7181 35.6192 20.3168C35.1043 21.6865 33.6655 23.4211 29.7324 23.9097C27.2682 24.2154 24.311 23.9432 21.6199 23.1631C18.3712 22.2216 14.9247 21.1732 14.5146 19.0269C14.2826 17.816 14.3592 17.0599 14.7099 15.3523C14.9989 13.9484 15.2694 12.8791 15.5975 11.7801ZM13.8444 8.73751L11.5765 18.2975C11.3851 19.1053 10.7042 19.5074 9.3623 19.2151C4.9579 18.2554 0.78979 14.7438 2.6706 10.7104C4.4517 6.89085 9.99238 6.37573 12.5265 7.05135C13.6762 7.35638 14.053 7.86163 13.8444 8.73751Z" fill="#FE5811" fill-opacity="0.2"/>
</g>
<g clip-path="url(#clip19_122_1355)">
<path d="M257.954 345.78C258.433 344.738 259.19 343.004 261.047 342.73C262.905 342.456 266.342 343.408 269.149 344.668C273.286 346.524 276.076 349.161 277.007 352.089C277.554 353.815 277.413 355.52 276.593 357.02C275.893 358.304 274.226 359.822 270.264 359.758C267.781 359.718 264.89 359.037 262.334 357.89C259.248 356.505 255.981 354.988 255.873 352.805C255.812 351.574 255.993 350.836 256.578 349.193C257.06 347.843 257.477 346.822 257.954 345.78ZM256.642 342.523L253.066 351.674C252.764 352.447 252.033 352.751 250.745 352.274C246.517 350.711 242.878 346.654 245.302 342.921C247.598 339.387 253.156 339.648 255.571 340.669C256.668 341.131 256.97 341.684 256.642 342.523Z" fill="#FE5811" fill-opacity="0.2"/>
</g>
<defs>
<clipPath id="clip0_122_1355">
<rect width="17" height="34" fill="white" transform="translate(83.4605 53.3407) rotate(146)"/>
</clipPath>
<clipPath id="clip1_122_1355">
<rect width="17" height="34" fill="white" transform="translate(80.514 91.1873) rotate(146)"/>
</clipPath>
<clipPath id="clip2_122_1355">
<rect width="17" height="34" fill="white" transform="translate(126.514 91.1873) rotate(146)"/>
</clipPath>
<clipPath id="clip3_122_1355">
<rect width="17" height="34" fill="white" transform="translate(120.514 133.187) rotate(146)"/>
</clipPath>
<clipPath id="clip4_122_1355">
<rect width="17" height="34" fill="white" transform="translate(170.514 142.187) rotate(146)"/>
</clipPath>
<clipPath id="clip5_122_1355">
<rect width="17" height="34" fill="white" transform="translate(155.067 185.499) rotate(167)"/>
</clipPath>
<clipPath id="clip6_122_1355">
<rect width="17" height="34" fill="white" transform="translate(198.62 200.129) rotate(167)"/>
</clipPath>
<clipPath id="clip7_122_1355">
<rect width="17" height="34" fill="white" transform="translate(184.62 241.129) rotate(167)"/>
</clipPath>
<clipPath id="clip8_122_1355">
<rect width="17" height="34" fill="white" transform="translate(225.62 259.129) rotate(167)"/>
</clipPath>
<clipPath id="clip9_122_1355">
<rect width="17" height="34" fill="white" transform="translate(218.679 306.639) rotate(142)"/>
</clipPath>
<clipPath id="clip10_122_1355">
<rect width="17" height="34" fill="white" transform="translate(265.736 303.792) rotate(142)"/>
</clipPath>
<clipPath id="clip11_122_1355">
<rect width="17" height="34" fill="white" transform="translate(327.181 335.518) rotate(123)"/>
</clipPath>
<clipPath id="clip12_122_1355">
<rect width="17" height="34" fill="white" transform="translate(356.301 368.532) rotate(117)"/>
</clipPath>
<clipPath id="clip13_122_1355">
<rect width="17" height="34" fill="white" transform="translate(406.098 344.807) rotate(106)"/>
</clipPath>
<clipPath id="clip14_122_1355">
<rect width="17" height="34" fill="white" transform="translate(455.776 364.372) rotate(106)"/>
</clipPath>
<clipPath id="clip15_122_1355">
<rect width="17" height="34" fill="white" transform="translate(500.776 333.372) rotate(106)"/>
</clipPath>
<clipPath id="clip16_122_1355">
<rect width="17" height="34" fill="white" transform="translate(525.776 367.372) rotate(106)"/>
</clipPath>
<clipPath id="clip17_122_1355">
<rect width="17" height="34" fill="white" transform="translate(47.4068 51.369) rotate(115)"/>
</clipPath>
<clipPath id="clip18_122_1355">
<rect width="17" height="34" fill="white" transform="translate(38.4068 14.369) rotate(115)"/>
</clipPath>
<clipPath id="clip19_122_1355">
<rect width="17" height="34" fill="white" transform="translate(280.181 351.518) rotate(123)"/>
</clipPath>
</defs>
</svg>
