<svg width="35" height="35" viewBox="0 0 35 35" fill="none" xmlns="http://www.w3.org/2000/svg">
<path d="M17.5 17.5C15.5215 17.5 13.9028 15.925 13.9028 14C13.9028 12.075 15.5215 10.5 17.5 10.5C19.4784 10.5 21.0972 12.075 21.0972 14C21.0972 15.925 19.4784 17.5 17.5 17.5ZM28.2916 14.35C28.2916 7.9975 23.5253 3.5 17.5 3.5C11.4746 3.5 6.70831 7.9975 6.70831 14.35C6.70831 18.445 10.2156 23.87 17.5 30.345C24.7843 23.87 28.2916 18.445 28.2916 14.35ZM17.5 0C25.0541 0 31.8889 5.635 31.8889 14.35C31.8889 20.16 27.0866 27.0375 17.5 35C7.91338 27.0375 3.11108 20.16 3.11108 14.35C3.11108 5.635 9.94581 0 17.5 0Z" fill="#FE5811"/>
</svg>
